<?xml version="1.0" encoding="UTF-8"?>
<svg version="1.1" xmlns="http://www.w3.org/2000/svg" width="272" height="185">
<path d="M0 0 C89.76 0 179.52 0 272 0 C272 61.05 272 122.1 272 185 C182.24 185 92.48 185 0 185 C0 123.95 0 62.9 0 0 Z " fill="#86F296" transform="translate(0,0)"/>
<path d="M0 0 C4.455 0.99 4.455 0.99 9 2 C8.01 3.98 7.02 5.96 6 8 C30.75 8 55.5 8 81 8 C80.505 5.525 80.505 5.525 80 3 C80.33 2.34 80.66 1.68 81 1 C87.33596679 1.95999497 93.60478994 4.23852244 98 9 C100.09592809 13.96625532 101.1834022 18.60411417 101 24 C102.98 24.495 102.98 24.495 105 25 C104.67 26.98 104.34 28.96 104 31 C105.32 31 106.64 31 108 31 C108 29.68 108 28.36 108 27 C109.65 27.33 111.3 27.66 113 28 C113.98711376 33.88266443 114.32395809 38.42250058 112 44 C110.515 44.495 110.515 44.495 109 45 C108.525625 45.99 108.05125 46.98 107.5625 48 C107.046875 48.99 106.53125 49.98 106 51 C104.68 51.33 103.36 51.66 102 52 C101.67 65.2 101.34 78.4 101 92 C100.34 92 99.68 92 99 92 C98.9175 92.70125 98.835 93.4025 98.75 94.125 C97.82297362 97.67860112 96.08792977 99.99092474 94 103 C92.415331 105.99326367 91.07066633 108.788001 90 112 C90.66 112.33 91.32 112.66 92 113 C92 113.66 92 114.32 92 115 C92.9590625 115.37125 92.9590625 115.37125 93.9375 115.75 C96 117 96 117 96.75 119.125 C96.8325 119.74375 96.915 120.3625 97 121 C97.66 121 98.32 121 99 121 C100.76625539 129.83127697 100 138.99382928 100 148 C63.04 148 26.08 148 -12 148 C-13.11736178 141.29582929 -13.11736178 141.29582929 -12.5625 137.5625 C-12.18403895 134.71206553 -12 132.14805907 -12 129.25 C-12 126.32067167 -11.68742565 123.83563081 -11 121 C-10.34 121 -9.68 121 -9 121 C-8.731875 120.195625 -8.46375 119.39125 -8.1875 118.5625 C-7.5996875 117.2940625 -7.5996875 117.2940625 -7 116 C-5.515 115.505 -5.515 115.505 -4 115 C-3.67 114.01 -3.34 113.02 -3 112 C-1.68352881 111.30062468 -0.34977849 110.63270867 1 110 C1.495 109.01 1.495 109.01 2 108 C1.01 108 0.02 108 -1 108 C-1 107.01 -1 106.02 -1 105 C-1.99 104.67 -2.98 104.34 -4 104 C-4.72904086 102.35965807 -5.38655243 100.68698082 -6 99 C-6.804375 97.6696875 -6.804375 97.6696875 -7.625 96.3125 C-9 94 -9 94 -9 92 C-9.66 92 -10.32 92 -11 92 C-13.16441107 84.10376845 -13.29347238 76.55017944 -13.265625 68.40234375 C-13.26697547 66.99947543 -13.26891918 65.59660758 -13.27142334 64.19374084 C-13.27435567 61.2680308 -13.27013772 58.34244369 -13.26074219 55.41674805 C-13.24933809 51.68587701 -13.2559251 47.95529351 -13.26788712 44.22443295 C-13.27514807 41.33234021 -13.27279863 38.44031455 -13.26763153 35.54821968 C-13.26630727 34.17324348 -13.26789934 32.79826099 -13.27259064 31.42329216 C-13.29159487 24.29116068 -13.16820182 17.8259601 -11 11 C-10.34 11 -9.68 11 -9 11 C-8.566875 9.576875 -8.566875 9.576875 -8.125 8.125 C-7 5 -7 5 -5 3 C-4.319375 2.835 -3.63875 2.67 -2.9375 2.5 C-2.298125 2.335 -1.65875 2.17 -1 2 C-0.67 1.34 -0.34 0.68 0 0 Z " fill="#5ADB72" transform="translate(92,37)"/>
<path d="M0 0 C7.34159292 -0.36106195 7.34159292 -0.36106195 9.9375 1.0625 C11.51168665 3.93307565 11.69573087 6.7747472 12 10 C10.35 10 8.7 10 7 10 C6.97465905 17.18993376 6.95713692 24.37985601 6.94506836 31.56982422 C6.94003751 34.01611766 6.93321216 36.46240809 6.92456055 38.90869141 C6.91244048 42.42351016 6.90675921 45.93828918 6.90234375 49.453125 C6.89718246 50.5480426 6.89202118 51.64296021 6.88670349 52.77105713 C6.88659019 54.30219147 6.88659019 54.30219147 6.88647461 55.86425781 C6.884254 56.76138489 6.88203339 57.65851196 6.87974548 58.58282471 C6.99583626 60.91630674 7.14876964 62.8212504 8 65 C9.485 65.495 9.485 65.495 11 66 C13.0216338 73.58112676 12.82542831 82.64514796 10 90 C7.14993215 93.5433276 4.06623844 95.96688078 0 98 C-0.99 98 -1.98 98 -3 98 C-3 98.66 -3 99.32 -3 100 C-27.75 100 -52.5 100 -78 100 C-78 99.34 -78 98.68 -78 98 C-78.886875 97.773125 -79.77375 97.54625 -80.6875 97.3125 C-84.5932546 95.76493686 -86.2879377 94.19884271 -89 91 C-89.72123047 90.16662109 -89.72123047 90.16662109 -90.45703125 89.31640625 C-94.31033169 84.21051779 -94.423541 80.15657918 -93.5859375 73.9140625 C-91.60681115 64.07120743 -91.60681115 64.07120743 -87 61 C-86.50295964 57.7527362 -86.50295964 57.7527362 -86.5234375 53.89453125 C-86.50006821 52.82014046 -86.50006821 52.82014046 -86.47622681 51.7240448 C-86.42864465 49.42021043 -86.40102765 47.11666977 -86.375 44.8125 C-86.27768416 38.87431285 -86.15390522 32.93698543 -86 27 C-85.983927 26.28052185 -85.967854 25.5610437 -85.95129395 24.81976318 C-85.89749521 22.75734111 -85.8163285 20.69785231 -85.7265625 18.63671875 C-85.68354004 17.45166748 -85.64051758 16.26661621 -85.59619141 15.0456543 C-84.89841298 11.48104091 -83.77964273 10.25433677 -81 8 C-80.67 9.32 -80.34 10.64 -80 12 C-78.68 12 -77.36 12 -76 12 C-73.77192435 17.06380831 -74.25722232 20.28794595 -75.875 25.375 C-78.71417583 35.49015343 -80.05155543 45.8978986 -75.8125 55.8125 C-73.22029028 61.90966935 -74.78118142 65.99714973 -77 72 C-77.57335496 73.89257876 -78.13646525 75.78830254 -78.6875 77.6875 C-79.12357599 79.12543262 -79.56051595 80.56310534 -80 82 C-78.9378125 81.71125 -77.875625 81.4225 -76.78125 81.125 C-75.35430151 80.74948724 -73.92721038 80.3745162 -72.5 80 C-71.80390625 79.80921875 -71.1078125 79.6184375 -70.390625 79.421875 C-64.22304511 77.82287281 -58.58040063 76.874007 -52.5625 79.5 C-44.35584125 82.88970688 -33.08386311 82.1166505 -24.8125 79.25 C-20.89366153 77.56626305 -17.40248147 75.59236683 -14 73 C-13.175 72.443125 -12.35 71.88625 -11.5 71.3125 C-3.85758529 64.24326639 1.02156623 54.49152163 1.47216797 44.09936523 C1.59038774 35.18206846 -0.07743536 28.02145772 -5.25 20.6875 C-7.14278595 17.78072158 -7.39896842 16.3912316 -7 13 C-8.32 12.67 -9.64 12.34 -11 12 C-11 11.01 -11 10.02 -11 9 C-9.2421875 8.05598958 -7.484375 7.11197917 -5.7265625 6.16796875 C-3.69497635 4.95236507 -3.69497635 4.95236507 -2 2 C-1.34 2 -0.68 2 0 2 C0 1.34 0 0.68 0 0 Z " fill="#04CB2D" transform="translate(176,46)"/>
<path d="M0 0 C7.93246723 4.42387595 12.51195094 10.38649446 15.30078125 18.9765625 C17.60616652 28.94509994 16.34484089 37.30445936 11 46 C5.9472868 53.50212492 -0.52583336 57.17527779 -9 60 C-16.74920859 60.48316408 -23.79997854 60.56056925 -31.08984375 57.671875 C-36.41937843 55.79727384 -42.53487795 57.23296533 -48 58 C-47.77183594 57.32453125 -47.54367188 56.6490625 -47.30859375 55.953125 C-47.02113281 55.06109375 -46.73367187 54.1690625 -46.4375 53.25 C-46.14746094 52.36828125 -45.85742188 51.4865625 -45.55859375 50.578125 C-44.57946054 46.05904867 -46.51407772 42.558174 -48.0625 38.3125 C-50.91756915 29.67408563 -50.83123085 23.29064315 -47.4609375 14.78125 C-42.93986213 6.17428298 -36.18055167 0.37513486 -27.21484375 -3.0703125 C-17.86046891 -5.77546586 -8.49628002 -4.54708319 0 0 Z " fill="#03C519" transform="translate(154,60)"/>
<path d="M0 0 C8.15682942 6.78673698 14.31170357 15.95063435 15.35546875 26.640625 C15.98652513 39.33852349 12.52279056 49.05869849 4.16015625 58.8125 C-4.33927803 67.41952205 -14.7297809 71.34697979 -26.6875 71.4375 C-32.78079586 71.3778333 -37.43732358 70.42734971 -43 68 C-49.17294891 67.38270511 -54.31561623 68.67898071 -60.265625 70.34375 C-63 71 -63 71 -67 71 C-66.734759 69.56145763 -66.46233523 68.12424025 -66.1875 66.6875 C-65.92646484 65.31464844 -65.92646484 65.31464844 -65.66015625 63.9140625 C-65 61 -65 61 -64.05859375 58.2734375 C-61.76759484 51.62091347 -62.25498266 48.45189886 -64.984375 42.07421875 C-68.65213064 30.97220457 -65.88806903 20.1951154 -61 10 C-60.34 10 -59.68 10 -59 10 C-58.835 9.319375 -58.67 8.63875 -58.5 7.9375 C-54.65413311 0.40601066 -46.65959519 -4.0335002 -39 -7 C-25.03386252 -11.00821883 -11.71207965 -8.66205891 0 0 Z M-53 12 C-54.72623054 14.57068386 -55.93437341 17.10050439 -57 20 C-57.61875 21.4540625 -57.61875 21.4540625 -58.25 22.9375 C-60.16563112 30.75966042 -58.70444153 36.81040225 -55.97265625 44.30078125 C-54.2538038 49.07076937 -53.81814889 51.32717264 -55.4375 56.25 C-55.72496094 57.14203125 -56.01242188 58.0340625 -56.30859375 58.953125 C-56.53675781 59.62859375 -56.76492187 60.3040625 -57 61 C-56.02160156 60.89300781 -55.04320313 60.78601563 -54.03515625 60.67578125 C-42.01347309 59.57645329 -42.01347309 59.57645329 -37.5 61.4375 C-29.86887179 64.55342381 -20.34483364 64.20977 -12.625 61.5 C-4.2978597 57.55848692 1.6964066 51.57564918 5 43 C5.35449219 42.22269531 5.70898438 41.44539063 6.07421875 40.64453125 C8.82996533 32.77263067 7.39748232 23.96350805 4.25 16.43359375 C-0.06663589 8.02964325 -7.2170952 3.28971771 -15.890625 -0.14453125 C-30.80399207 -4.24758073 -43.01517603 0.8996554 -53 12 Z " fill="#DAF6DE" transform="translate(163,57)"/>
<path d="M0 0 C4.455 0.99 4.455 0.99 9 2 C8.01 3.98 7.02 5.96 6 8 C31.08 7.67 56.16 7.34 82 7 C82.33 6.34 82.66 5.68 83 5 C84.43836751 5.11458693 85.87570966 5.24209116 87.3125 5.375 C88.51326172 5.47941406 88.51326172 5.47941406 89.73828125 5.5859375 C92 6 92 6 95 8 C95 8.99 95 9.98 95 11 C91.37 10.34 87.74 9.68 84 9 C84 9.66 84 10.32 84 11 C82.35546875 12.7265625 82.35546875 12.7265625 80.1875 14.625 C79.47980469 15.25664063 78.77210938 15.88828125 78.04296875 16.5390625 C76 18 76 18 73 18 C73.495 19.485 73.495 19.485 74 21 C75.485 21.495 75.485 21.495 77 22 C76.67 23.32 76.34 24.64 76 26 C75.45472656 25.46890625 74.90945312 24.9378125 74.34765625 24.390625 C69.24505426 19.61075168 64.64745069 16.2196907 58 14 C57.30390625 13.76410156 56.6078125 13.52820312 55.890625 13.28515625 C45.79387199 10.46617229 35.17613941 12.18328895 26 17 C20.11568839 20.37837449 15.11518865 23.76962269 12 30 C11.34 30 10.68 30 10 30 C9.87625 30.598125 9.7525 31.19625 9.625 31.8125 C9 34 9 34 7 37 C7.5149773 33.91013619 8.03217151 30.86327109 8.75 27.8125 C9.30903307 25.00965306 9.30903307 25.00965306 7.6875 23.1875 C6.00282202 21.93932651 6.00282202 21.93932651 4 21 C3.34 20.01 2.68 19.02 2 18 C-0.35767689 21.53651534 -0.3627069 23.35856135 -0.58984375 27.56640625 C-0.62665756 28.22282608 -0.66347137 28.87924591 -0.70140076 29.55555725 C-1.13294947 37.67711481 -1.34918139 45.8078844 -1.5625 53.9375 C-1.60585384 55.50716883 -1.64947236 57.07683037 -1.69335938 58.64648438 C-1.7986092 62.43091295 -1.9003299 66.21542054 -2 70 C-2.63389648 70.2357373 -3.26779297 70.47147461 -3.92089844 70.71435547 C-6.16406692 71.81611377 -6.16406692 71.81611377 -6.82128906 74.06298828 C-6.96791992 74.89040527 -7.11455078 75.71782227 -7.265625 76.5703125 C-7.43320313 77.46621094 -7.60078125 78.36210938 -7.7734375 79.28515625 C-7.93070312 80.22230469 -8.08796875 81.15945312 -8.25 82.125 C-8.50910156 83.54232422 -8.50910156 83.54232422 -8.7734375 84.98828125 C-9.19796474 87.32318106 -9.60605754 89.65977909 -10 92 C-13.21917692 87.17123462 -13.12556067 82.25406235 -13.14526367 76.57080078 C-13.15164352 75.31574738 -13.15802338 74.06069397 -13.16459656 72.76760864 C-13.16612554 71.41017699 -13.16723934 70.05274482 -13.16796875 68.6953125 C-13.17118658 67.28815681 -13.17455104 65.88100144 -13.17805481 64.47384644 C-13.18402659 61.53024521 -13.18589671 58.58667326 -13.18530273 55.64306641 C-13.18520119 51.88858933 -13.19885407 48.1343017 -13.21607494 44.37986946 C-13.22724401 41.47491611 -13.22922045 38.57000786 -13.22869301 35.66503525 C-13.22986571 34.28167951 -13.2342472 32.89832232 -13.24202538 31.51498795 C-13.27854421 24.35000246 -13.1873669 17.85631429 -11 11 C-10.34 11 -9.68 11 -9 11 C-8.566875 9.576875 -8.566875 9.576875 -8.125 8.125 C-7 5 -7 5 -5 3 C-4.319375 2.835 -3.63875 2.67 -2.9375 2.5 C-2.298125 2.335 -1.65875 2.17 -1 2 C-0.67 1.34 -0.34 0.68 0 0 Z " fill="#40E460" transform="translate(92,37)"/>
<path d="M0 0 C7.94072982 4.42848394 12.46091708 10.37477591 15.3125 18.94140625 C16.50293009 24.23746738 16.68205982 29.61489977 16 35 C15.01 35.99 15.01 35.99 14 37 C14 31.39 14 25.78 14 20 C12.68 20.99 11.36 21.98 10 23 C10 22.01 10 21.02 10 20 C2.08 20 -5.84 20 -14 20 C-14 18.35 -14 16.7 -14 15 C-15.65 15.33 -17.3 15.66 -19 16 C-19.33 15.34 -19.66 14.68 -20 14 C-20.66 14.33 -21.32 14.66 -22 15 C-21.81824219 15.7115625 -21.63648438 16.423125 -21.44921875 17.15625 C-20.96524221 20.22003191 -21.28700197 22.45809271 -21.8125 25.5 C-22.30417455 29.32547328 -22.30417455 29.32547328 -20.91015625 32.75390625 C-17.99283682 35.24067981 -14.62576944 36.82695694 -11 38 C-10.34 36.35 -9.68 34.7 -9 33 C-4.67810149 33.50254634 -1.40579311 34.1952292 2 37 C2.625 39.4375 2.625 39.4375 2 42 C-0.15807155 44.75340163 -1.97030888 45.7883506 -5.39453125 46.4921875 C-13.52796107 47.0739779 -18.82964631 44.07468341 -25 39 C-27.59009905 36.49786657 -29.82581784 33.86674149 -32 31 C-32.48339844 30.40058594 -32.96679688 29.80117187 -33.46484375 29.18359375 C-36.99191911 24.6137309 -39.0689881 20.10446443 -38.9375 14.1875 C-38.958125 13.465625 -38.97875 12.74375 -39 12 C-39.99 11.34 -40.98 10.68 -42 10 C-41.67 10.99 -41.34 11.98 -41 13 C-41.9375 15.1875 -41.9375 15.1875 -43 17 C-43.33 16.34 -43.66 15.68 -44 15 C-44.33 16.65 -44.66 18.3 -45 20 C-45.33 20 -45.66 20 -46 20 C-46 26.93 -46 33.86 -46 41 C-49.5484745 37.4515255 -50.13060429 32.6117289 -50.375 27.75 C-50.06251224 18.06287934 -45.92672206 10.94766249 -39.3046875 4.09765625 C-28.33406059 -5.88747367 -12.87932847 -6.89282579 0 0 Z " fill="#2CD447" transform="translate(154,60)"/>
<path d="M0 0 C6.33596679 0.95999497 12.60478994 3.23852244 17 8 C19.09592809 12.96625532 20.1834022 17.60411417 20 23 C21.32 23.33 22.64 23.66 24 24 C23.67 25.98 23.34 27.96 23 30 C24.32 30 25.64 30 27 30 C27 28.68 27 27.36 27 26 C28.65 26.33 30.3 26.66 32 27 C32.98711376 32.88266443 33.32395809 37.42250058 31 43 C29.515 43.495 29.515 43.495 28 44 C27.525625 44.99 27.05125 45.98 26.5625 47 C26.046875 47.99 25.53125 48.98 25 50 C23.02 50.495 23.02 50.495 21 51 C20.67 64.2 20.34 77.4 20 91 C19.34 91 18.68 91 18 91 C17.9175 91.70125 17.835 92.4025 17.75 93.125 C16.82297362 96.67860112 15.08792977 98.99092474 13 102 C12.505 103.0725 12.01 104.145 11.5 105.25 C9.91619594 108.15364077 9.06677455 108.94249153 6 110 C4.68 108.68 3.36 107.36 2 106 C3.12073862 105.16094435 4.24674547 104.32892169 5.375 103.5 C6.00148437 103.0359375 6.62796875 102.571875 7.2734375 102.09375 C9 101 9 101 11 101 C13.93988261 94.53225826 14.12463374 88.08361225 14.0625 81.0625 C14.05798828 80.37865234 14.05347656 79.69480469 14.04882812 78.99023438 C14.0371956 77.32678396 14.01926694 75.6633795 14 74 C12.68 73.67 11.36 73.34 10 73 C9.14301228 70.02800337 8.87362454 67.38384706 8.87060547 64.29492188 C8.86745331 63.36715942 8.86430115 62.43939697 8.86105347 61.48352051 C8.86408981 59.99120911 8.86408981 59.99120911 8.8671875 58.46875 C8.86623077 57.44068237 8.86527405 56.41261475 8.86428833 55.35339355 C8.86360832 53.18139586 8.86545014 51.00939612 8.86962891 48.83740234 C8.87497964 45.51264888 8.86967784 42.18803051 8.86328125 38.86328125 C8.86394206 36.75260387 8.86522329 34.64192657 8.8671875 32.53125 C8.86516327 31.53637573 8.86313904 30.54150146 8.86105347 29.51647949 C8.86420563 28.58871704 8.86735779 27.66095459 8.87060547 26.70507812 C8.87179886 25.4840741 8.87179886 25.4840741 8.87301636 24.23840332 C8.99795665 22.03601914 9.39015286 20.11492371 10 18 C11.65 18 13.3 18 15 18 C14.67 16.741875 14.34 15.48375 14 14.1875 C13.32396773 11.61012698 13 9.69787075 13 7 C9.37 6.01 5.74 5.02 2 4 C1.67 4.99 1.34 5.98 1 7 C-0.0625 5.1875 -0.0625 5.1875 -1 3 C-0.67 2.01 -0.34 1.02 0 0 Z " fill="#4BDF64" transform="translate(173,38)"/>
<path d="M0 0 C1.44724527 0.00052011 2.89449126 -0.00000341 4.34173584 -0.00151062 C7.35390971 -0.00142157 10.3658122 0.00887404 13.37792969 0.02709961 C17.22319923 0.04986658 21.06807638 0.05030885 24.91339493 0.04358196 C27.8938135 0.04023006 30.87414381 0.04689365 33.85454559 0.0567112 C35.27220955 0.0605363 36.68988336 0.06172269 38.10755157 0.06012535 C40.09027846 0.05975144 42.07299166 0.07391961 44.05566406 0.08862305 C45.17942444 0.09323044 46.30318481 0.09783783 47.46099854 0.10258484 C51.15941534 0.39713207 54.20745497 1.23877652 57.734375 2.36328125 C57.734375 3.02328125 57.734375 3.68328125 57.734375 4.36328125 C58.45625 4.26015625 59.178125 4.15703125 59.921875 4.05078125 C63.85479089 4.4877719 65.19759423 6.46410322 67.734375 9.36328125 C67.404375 10.02328125 67.074375 10.68328125 66.734375 11.36328125 C65.93773437 10.94755859 65.93773437 10.94755859 65.125 10.5234375 C64.41859375 10.16121094 63.7121875 9.79898438 62.984375 9.42578125 C61.94023437 8.88630859 61.94023437 8.88630859 60.875 8.3359375 C58.83213067 7.40769943 56.92322124 6.83161547 54.734375 6.36328125 C54.734375 8.67328125 54.734375 10.98328125 54.734375 13.36328125 C29.984375 13.36328125 5.234375 13.36328125 -20.265625 13.36328125 C-19.265625 9.36328125 -19.265625 9.36328125 -18.265625 8.36328125 C-20.905625 7.37328125 -23.545625 6.38328125 -26.265625 5.36328125 C-26.595625 6.35328125 -26.925625 7.34328125 -27.265625 8.36328125 C-28.255625 8.36328125 -29.245625 8.36328125 -30.265625 8.36328125 C-30.265625 7.70328125 -30.265625 7.04328125 -30.265625 6.36328125 C-22.16430788 -0.88368528 -10.17323003 -0.07307902 0 0 Z " fill="#54F572" transform="translate(118.265625,31.63671875)"/>
<path d="M0 0 C0.99 0 1.98 0 3 0 C3.474375 0.495 3.94875 0.99 4.4375 1.5 C6.11993064 3.46168789 6.11993064 3.46168789 10 3 C10 4.65 10 6.3 10 8 C10.57975586 7.83250244 11.15951172 7.66500488 11.75683594 7.49243164 C15.25431375 6.72464619 18.71014851 7.16544428 22.25 7.4375 C23.36761719 7.51581055 23.36761719 7.51581055 24.5078125 7.59570312 C26.33894861 7.7248217 28.16953813 7.86165114 30 8 C30.33 7.34 30.66 6.68 31 6 C31 6.66 31 7.32 31 8 C34.01031744 8.93423645 34.86650268 9.04449911 38 8 C40.21430248 16.85720991 39.0698469 25.38264923 35.375 33.625 C31.2619726 40.14233387 25.12507425 44.71358772 17.94140625 47.35546875 C12.0346554 48.64977671 6.00630434 48.28830261 0 48 C0 47.67 0 47.34 0 47 C4.62 46.67 9.24 46.34 14 46 C14.33 45.01 14.66 44.02 15 43 C17.70879335 41.64560332 20.00933268 41.93498549 23 42 C23 41.34 23 40.68 23 40 C23.99 39.505 23.99 39.505 25 39 C25 38.34 25 37.68 25 37 C23.515 37.495 23.515 37.495 22 38 C21.67 37.34 21.34 36.68 21 36 C18.67843403 35.59270772 16.3431213 35.25561323 14 35 C14 34.67 14 34.34 14 34 C14.62648437 33.87882812 15.25296875 33.75765625 15.8984375 33.6328125 C16.71570313 33.46523437 17.53296875 33.29765625 18.375 33.125 C19.59316406 32.88136719 19.59316406 32.88136719 20.8359375 32.6328125 C23.18673923 32.13341068 23.18673923 32.13341068 25 30 C25.16687448 27.41645782 25.16687448 27.41645782 25 25 C20.18790099 22.70954986 20.18790099 22.70954986 15 22 C14.34 23.32 13.68 24.64 13 26 C8.56791703 25.73138891 5.54249392 23.89312359 2.30859375 21 C0.1084466 17.63738704 1.02816096 14.57972815 1.6640625 10.76953125 C2.15131554 6.75252656 1.22523249 3.81984248 0 0 Z " fill="#03CB27" transform="translate(130,72)"/>
<path d="M0 0 C0.66 0.99 1.32 1.98 2 3 C4.41557136 3.49319433 4.41557136 3.49319433 7.234375 3.4765625 C8.28367187 3.5075 9.33296875 3.5384375 10.4140625 3.5703125 C12.06535156 3.59738281 12.06535156 3.59738281 13.75 3.625 C15.91154036 3.676343 18.0730065 3.73093278 20.234375 3.7890625 C21.19569336 3.80662598 22.15701172 3.82418945 23.14746094 3.84228516 C26.15712717 4.00868745 29.03769937 4.45367856 32 5 C32 5.99 32 6.98 32 8 C31.2265625 8.35191406 30.453125 8.70382813 29.65625 9.06640625 C21.79582722 12.79232447 13.67370677 16.67050644 10 25 C9.34 25 8.68 25 8 25 C7.87625 25.598125 7.7525 26.19625 7.625 26.8125 C7 29 7 29 5 32 C5.5149773 28.91013619 6.03217151 25.86327109 6.75 22.8125 C7.30903307 20.00965306 7.30903307 20.00965306 5.6875 18.1875 C4.00282202 16.93932651 4.00282202 16.93932651 2 16 C1.34 15.01 0.68 14.02 0 13 C-2.35767689 16.53651534 -2.3627069 18.35856135 -2.58984375 22.56640625 C-2.62665756 23.22282608 -2.66347137 23.87924591 -2.70140076 24.55555725 C-3.13294947 32.67711481 -3.34918139 40.8078844 -3.5625 48.9375 C-3.60585384 50.50716883 -3.64947236 52.07683037 -3.69335938 53.64648438 C-3.7986092 57.43091295 -3.9003299 61.21542054 -4 65 C-4.95084473 65.38067627 -4.95084473 65.38067627 -5.92089844 65.76904297 C-8.42970502 66.95069329 -8.42970502 66.95069329 -9.265625 70.6953125 C-9.61058646 72.16803258 -9.9381347 73.64491795 -10.25 75.125 C-10.50910156 76.25615234 -10.50910156 76.25615234 -10.7734375 77.41015625 C-11.19722184 79.27009861 -11.60059024 81.13467145 -12 83 C-12.33 83 -12.66 83 -13 83 C-13.02937438 79.66668561 -13.04692334 76.33340517 -13.0625 73 C-13.07087891 72.06542969 -13.07925781 71.13085938 -13.08789062 70.16796875 C-13.10708892 64.67725599 -12.8134193 59.43133519 -12 54 C-11.67 54 -11.34 54 -11 54 C-10.34 57.3 -9.68 60.6 -9 64 C-8.01 64.33 -7.02 64.66 -6 65 C-5.97464827 58.52214391 -5.95713238 52.04430062 -5.94506836 45.56640625 C-5.94003912 43.36262534 -5.93321495 41.15884778 -5.92456055 38.95507812 C-5.9124334 35.78775204 -5.90675759 32.62047006 -5.90234375 29.453125 C-5.89718246 28.46757629 -5.89202118 27.48202759 -5.88670349 26.46661377 C-5.88659019 25.08563507 -5.88659019 25.08563507 -5.88647461 23.67675781 C-5.884254 22.8684552 -5.88203339 22.06015259 -5.87974548 21.22735596 C-6.00166694 18.96912496 -6.18707127 17.1149893 -7 15 C-7.99 14.67 -8.98 14.34 -10 14 C-9.67 11.36 -9.34 8.72 -9 6 C-8.01 6 -7.02 6 -6 6 C-6 5.34 -6 4.68 -6 4 C-4.36368108 2.95107762 -2.69514137 1.95093297 -1 1 C-0.67 0.67 -0.34 0.34 0 0 Z " fill="#26D74A" transform="translate(94,42)"/>
<path d="M0 0 C0 1.65 0 3.3 0 5 C-1.32 5.33 -2.64 5.66 -4 6 C-4 6.66 -4 7.32 -4 8 C-28.75 8 -53.5 8 -79 8 C-79 7.34 -79 6.68 -79 6 C-79.99 5.67 -80.98 5.34 -82 5 C-81.67 4.01 -81.34 3.02 -81 2 C-76.8870753 1.02196193 -73.0009651 0.84608459 -68.77880859 0.79467773 C-67.71692574 0.77982834 -67.71692574 0.77982834 -66.6335907 0.76467896 C-64.30523968 0.73322136 -61.97686847 0.70836264 -59.6484375 0.68359375 C-58.02608739 0.66300417 -56.40374239 0.64200719 -54.78140259 0.62062073 C-50.51815008 0.56553695 -46.25485007 0.51608091 -41.99151611 0.46777344 C-37.6505502 0.41754789 -33.30965532 0.36181422 -28.96875 0.30664062 C-22.63333293 0.22692466 -16.29789739 0.14920396 -9.96240234 0.07592773 C-8.68730804 0.06117905 -7.41221375 0.04643036 -6.09848022 0.03123474 C-4.0657301 0.01074327 -2.0328534 0 0 0 Z " fill="#019904" transform="translate(177,138)"/>
<path d="M0 0 C2.5625 1.0625 2.5625 1.0625 3.58984375 2.7734375 C5.73495565 8.09173336 5.35444095 10.68667716 3.5625 16.0625 C7.02867811 21.71784324 11.34419061 25.03203163 17.5625 27.0625 C18.2225 25.4125 18.8825 23.7625 19.5625 22.0625 C23.88439851 22.56504634 27.15670689 23.2577292 30.5625 26.0625 C31.1875 28.5 31.1875 28.5 30.5625 31.0625 C28.40442845 33.81590163 26.59219112 34.8508506 23.16796875 35.5546875 C15.02638875 36.13706089 9.74456592 33.12929431 3.5625 28.0625 C-2.0623104 22.81337267 -6.80835949 16.646238 -7.875 8.875 C-7.36971938 5.62676747 -6.39030828 3.69128038 -4.4375 1.0625 C-2.4375 0.0625 -2.4375 0.0625 0 0 Z " fill="#C8F7CC" transform="translate(125.4375,70.9375)"/>
<path d="M0 0 C3.00617269 3.00617269 2.59585316 5.82381598 3 10 C3.99 10 4.98 10 6 10 C6.66 14.29 7.32 18.58 8 23 C11.54321888 21.59624169 11.54321888 21.59624169 15 20 C14.875 22.3125 14.875 22.3125 14 25 C10.17937606 27.51813851 7.49310468 28.14518536 3 28 C3.02094727 29.29623291 3.04189453 30.59246582 3.06347656 31.92797852 C3.13610891 36.75664132 3.18188431 41.58525621 3.21972656 46.41430664 C3.23978913 48.50065239 3.2670459 50.58694227 3.30175781 52.6730957 C3.35051159 55.67933978 3.37302267 58.68483769 3.390625 61.69140625 C3.41127014 62.61772354 3.43191528 63.54404083 3.45318604 64.49842834 C3.45525821 70.53671422 2.4471435 74.0171481 -1 79 C-1.33 79 -1.66 79 -2 79 C-2 72.07 -2 65.14 -2 58 C-3.32 57.67 -4.64 57.34 -6 57 C-6.86774887 54.00372383 -7.12189893 51.34640117 -7.11352539 48.23144531 C-7.11344986 47.29077209 -7.11337433 46.35009888 -7.11329651 45.38092041 C-7.10813522 44.37349792 -7.10297394 43.36607544 -7.09765625 42.328125 C-7.0962413 41.29057068 -7.09482635 40.25301636 -7.09336853 39.184021 C-7.08777447 35.87265124 -7.07522303 32.56134929 -7.0625 29.25 C-7.05748423 27.00390723 -7.05292146 24.75781339 -7.04882812 22.51171875 C-7.03780699 17.0077894 -7.02107474 11.50389954 -7 6 C-6.67 6 -6.34 6 -6 6 C-5.67 21.51 -5.34 37.02 -5 53 C-4.34 53 -3.68 53 -3 53 C-1.56630953 35.3407733 -0.54313343 17.7092407 0 0 Z " fill="#28DD4E" transform="translate(189,54)"/>
<path d="M0 0 C0.66 0.33 1.32 0.66 2 1 C2 1.99 2 2.98 2 4 C3.32 4 4.64 4 6 4 C8.20976442 9.03981359 7.77669333 12.29764063 6.1875 17.375 C3.85358677 25.58046608 3.22601246 33.50193157 3 42 C2.34 41.67 1.68 41.34 1 41 C0.5859375 37.83984375 0.5859375 37.83984375 0.375 33.9375 C0.30023438 32.64714844 0.22546875 31.35679688 0.1484375 30.02734375 C0.09945312 29.02832031 0.05046875 28.02929688 0 27 C-0.03738281 28.17175781 -0.07476562 29.34351563 -0.11328125 30.55078125 C-0.97466894 52.71086456 -0.97466894 52.71086456 -6.10546875 58.2890625 C-6.73066406 58.85367188 -7.35585937 59.41828125 -8 60 C-8.495 58.515 -8.495 58.515 -9 57 C-8.02776489 56.23586792 -8.02776489 56.23586792 -7.03588867 55.45629883 C-4.27590774 52.12638299 -4.47362226 49.99037216 -4.42578125 45.69921875 C-4.41161667 44.98578812 -4.39745209 44.27235748 -4.38285828 43.53730774 C-4.34104549 41.25388813 -4.32578462 38.97124719 -4.3125 36.6875 C-4.27342266 33.71213217 -4.22515203 30.73693223 -4.17578125 27.76171875 C-4.15791061 26.66547684 -4.15791061 26.66547684 -4.13967896 25.54708862 C-4.0503189 20.57606509 -3.91998696 15.61015957 -3.66796875 10.64453125 C-3.61278076 9.45835205 -3.55759277 8.27217285 -3.50073242 7.05004883 C-2.97192808 3.82900902 -2.1840077 2.37341269 0 0 Z M-10 60 C-9.67 60 -9.34 60 -9 60 C-8.61866701 61.9914056 -8.28674418 63.99279077 -8 66 C-8.33 66.33 -8.66 66.66 -9 67 C-9.23192865 68.51469448 -9.41215238 70.03754562 -9.5625 71.5625 C-9.64628906 72.38878906 -9.73007813 73.21507813 -9.81640625 74.06640625 C-9.87699219 74.70449219 -9.93757813 75.34257812 -10 76 C-9.01 76 -8.02 76 -7 76 C-4 80.22222222 -4 80.22222222 -4 83 C-1.525 83.99 -1.525 83.99 1 85 C0.67 86.32 0.34 87.64 0 89 C-6.00859948 85.85263837 -9.63601378 81.38797746 -12 75 C-12.30501607 69.7702453 -11.65394725 64.96184174 -10 60 Z " fill="#1FCB42" transform="translate(94,54)"/>
<path d="M0 0 C2.07324138 3.10986207 2.27392186 3.89108387 2.25 7.4375 C2.25515625 8.19933594 2.2603125 8.96117187 2.265625 9.74609375 C1.96985417 12.25579622 1.35015994 13.87090163 0 16 C-2.125 16.75 -2.125 16.75 -4 17 C-4 17.66 -4 18.32 -4 19 C-7.71277738 20.23759246 -11.14187846 20.55653215 -15 20 C-18.44312714 17.8755173 -19.71617547 16.85147359 -21 13 C-21.40522134 5.57094211 -21.40522134 5.57094211 -19 2 C-13.30327808 -0.98297159 -6.1735322 -2.10219416 0 0 Z " fill="#40D556" transform="translate(36,152)"/>
<path d="M0 0 C7.34159292 -0.36106195 7.34159292 -0.36106195 9.9375 1.0625 C11.51168665 3.93307565 11.69573087 6.7747472 12 10 C10.35 10 8.7 10 7 10 C6.67 26.83 6.34 43.66 6 61 C5.67 61 5.34 61 5 61 C4.11504503 51.62895894 3.8829591 42.40228594 4 33 C3.34 33 2.68 33 2 33 C2 32.01 2 31.02 2 30 C2.66 30 3.32 30 4 30 C3.67 29.01 3.34 28.02 3 27 C2.93197033 25.27204648 2.91504355 23.54164635 2.9375 21.8125 C2.94652344 20.91144531 2.95554688 20.01039062 2.96484375 19.08203125 C2.97644531 18.39496094 2.98804688 17.70789063 3 17 C1.68 17.99 0.36 18.98 -1 20 C-0.67 21.32 -0.34 22.64 0 24 C-1.8125 23.8125 -1.8125 23.8125 -4 23 C-6.62334906 19.62712264 -7.36372697 17.24348127 -7 13 C-8.32 12.67 -9.64 12.34 -11 12 C-11 11.01 -11 10.02 -11 9 C-9.2421875 8.05598958 -7.484375 7.11197917 -5.7265625 6.16796875 C-3.69497635 4.95236507 -3.69497635 4.95236507 -2 2 C-1.34 2 -0.68 2 0 2 C0 1.34 0 0.68 0 0 Z " fill="#17D03F" transform="translate(176,46)"/>
<path d="M0 0 C0.33 0 0.66 0 1 0 C1 1.65 1 3.3 1 5 C2.32 5.33 3.64 5.66 5 6 C4.67 7.98 4.34 9.96 4 12 C5.32 12 6.64 12 8 12 C8 10.68 8 9.36 8 8 C10.475 8.495 10.475 8.495 13 9 C13.98711376 14.88266443 14.32395809 19.42250058 12 25 C11.01 25.33 10.02 25.66 9 26 C8.525625 26.99 8.05125 27.98 7.5625 29 C7.046875 29.99 6.53125 30.98 6 32 C4.02 32.495 4.02 32.495 2 33 C1.67 46.2 1.34 59.4 1 73 C0.34 73 -0.32 73 -1 73 C-1.0825 73.70125 -1.165 74.4025 -1.25 75.125 C-2.17702638 78.67860112 -3.91207023 80.99092474 -6 84 C-6.495 85.0725 -6.99 86.145 -7.5 87.25 C-9.08380406 90.15364077 -9.93322545 90.94249153 -13 92 C-14.32 90.68 -15.64 89.36 -17 88 C-15.87926138 87.16094435 -14.75325453 86.32892169 -13.625 85.5 C-12.99851563 85.0359375 -12.37203125 84.571875 -11.7265625 84.09375 C-10 83 -10 83 -8 83 C-7.6596875 82.01 -7.6596875 82.01 -7.3125 81 C-6.1897476 78.43370879 -5.07485684 76.70010185 -3.4621582 74.46289062 C-0.38205302 69.56728904 -0.26875526 65.2653495 -0.29296875 59.59375 C-0.27784744 58.6284436 -0.26272614 57.66313721 -0.24714661 56.6685791 C-0.20446218 53.61214486 -0.19545012 50.55670189 -0.1875 47.5 C-0.16434077 45.41664067 -0.13897248 43.33330465 -0.11132812 41.25 C-0.04866579 36.16657977 -0.01618025 31.08377206 0 26 C3.3 25.01 6.6 24.02 10 23 C10 22.01 10 21.02 10 20 C8.35 20.33 6.7 20.66 5 21 C2.75171948 16.50343896 2.83317728 12.92127034 3 8 C2.01 8 1.02 8 0 8 C0 5.36 0 2.72 0 0 Z " fill="#66EF7B" transform="translate(192,56)"/>
<path d="M0 0 C0.7734375 0.10957031 1.546875 0.21914063 2.34375 0.33203125 C3.1171875 0.42871094 3.890625 0.52539062 4.6875 0.625 C6.84375 1.14453125 6.84375 1.14453125 9.84375 3.14453125 C9.84375 4.13453125 9.84375 5.12453125 9.84375 6.14453125 C6.21375 5.48453125 2.58375 4.82453125 -1.15625 4.14453125 C-1.15625 4.80453125 -1.15625 5.46453125 -1.15625 6.14453125 C-2.80078125 7.87109375 -2.80078125 7.87109375 -4.96875 9.76953125 C-5.67644531 10.40117188 -6.38414062 11.0328125 -7.11328125 11.68359375 C-9.15625 13.14453125 -9.15625 13.14453125 -12.15625 13.14453125 C-11.66125 14.62953125 -11.66125 14.62953125 -11.15625 16.14453125 C-10.16625 16.47453125 -9.17625 16.80453125 -8.15625 17.14453125 C-8.48625 18.46453125 -8.81625 19.78453125 -9.15625 21.14453125 C-9.70152344 20.6134375 -10.24679688 20.08234375 -10.80859375 19.53515625 C-22.25203154 8.81549144 -33.90493972 7.04028054 -49.15625 6.14453125 C-49.15625 5.48453125 -49.15625 4.82453125 -49.15625 4.14453125 C-47.83906982 4.12994873 -46.52188965 4.11536621 -45.16479492 4.1003418 C-40.28365762 4.04242412 -35.40298482 3.96519089 -30.5222168 3.88208008 C-28.40868664 3.84879997 -26.29506694 3.82077772 -24.18139648 3.7980957 C-21.14528194 3.76460653 -18.10999025 3.71229361 -15.07421875 3.65625 C-14.12725632 3.64986008 -13.18029388 3.64347015 -12.20463562 3.6368866 C-11.32394913 3.61709244 -10.44326263 3.59729828 -9.53588867 3.5769043 C-8.37339851 3.56024971 -8.37339851 3.56024971 -7.18742371 3.54325867 C-3.93068741 2.90394847 -3.29060575 0.22056596 0 0 Z " fill="#3ADC58" transform="translate(177.15625,41.85546875)"/>
<path d="M0 0 C0.886875 0.309375 1.77375 0.61875 2.6875 0.9375 C3.3475 0.6075 4.0075 0.2775 4.6875 -0.0625 C5.6775 0.2675 6.6675 0.5975 7.6875 0.9375 C7.6875 1.9275 7.6875 2.9175 7.6875 3.9375 C7.3575 4.2675 7.0275 4.5975 6.6875 4.9375 C7.6775 4.9375 8.6675 4.9375 9.6875 4.9375 C10.3475 3.6175 11.0075 2.2975 11.6875 0.9375 C11.6875 2.2575 11.6875 3.5775 11.6875 4.9375 C13.6675 4.9375 15.6475 4.9375 17.6875 4.9375 C17.3575 6.5875 17.0275 8.2375 16.6875 9.9375 C15.6975 10.2675 14.7075 10.5975 13.6875 10.9375 C13.873125 11.5975 14.05875 12.2575 14.25 12.9375 C14.82757609 16.89802175 14.39934128 19.99001656 13.6875 23.9375 C13.0275 24.5975 12.3675 25.2575 11.6875 25.9375 C11.0275 24.2875 10.3675 22.6375 9.6875 20.9375 C10.3475 20.2775 11.0075 19.6175 11.6875 18.9375 C11.5253429 16.77227431 11.5253429 16.77227431 10.875 14.4375 C10.68292969 13.6434375 10.49085938 12.849375 10.29296875 12.03125 C9.74642428 9.90439687 9.74642428 9.90439687 8.6875 7.9375 C4.52094263 8.16061204 4.52094263 8.16061204 1.3125 10.5 C0.40455055 14.04100284 0.56575558 17.28516736 0.6875 20.9375 C-1.3125 19.9375 -1.3125 19.9375 -2.4375 16.6875 C-3.3125 12.9375 -3.3125 12.9375 -3.25 10.125 C-3.270625 9.403125 -3.29125 8.68125 -3.3125 7.9375 C-4.3025 7.2775 -5.2925 6.6175 -6.3125 5.9375 C-5.9825 6.9275 -5.6525 7.9175 -5.3125 8.9375 C-6.25 11.125 -6.25 11.125 -7.3125 12.9375 C-7.6425 12.2775 -7.9725 11.6175 -8.3125 10.9375 C-8.6425 12.5875 -8.9725 14.2375 -9.3125 15.9375 C-9.6425 15.9375 -9.9725 15.9375 -10.3125 15.9375 C-10.3125 22.8675 -10.3125 29.7975 -10.3125 36.9375 C-13.8609745 33.3890255 -14.44310429 28.5492289 -14.6875 23.6875 C-14.4390839 15.10983815 -10.97379339 7.46683901 -5.12109375 1.26171875 C-3.3125 -0.0625 -3.3125 -0.0625 0 0 Z " fill="#2BC54B" transform="translate(118.3125,64.0625)"/>
<path d="M0 0 C1.44724527 0.00052011 2.89449126 -0.00000341 4.34173584 -0.00151062 C7.35390971 -0.00142157 10.3658122 0.00887404 13.37792969 0.02709961 C17.22319923 0.04986658 21.06807638 0.05030885 24.91339493 0.04358196 C27.8938135 0.04023006 30.87414381 0.04689365 33.85454559 0.0567112 C35.27220955 0.0605363 36.68988336 0.06172269 38.10755157 0.06012535 C40.09027846 0.05975144 42.07299166 0.07391961 44.05566406 0.08862305 C45.17942444 0.09323044 46.30318481 0.09783783 47.46099854 0.10258484 C51.15941534 0.39713207 54.20745497 1.23877652 57.734375 2.36328125 C57.734375 3.02328125 57.734375 3.68328125 57.734375 4.36328125 C56.35494469 4.35995033 56.35494469 4.35995033 54.94764709 4.35655212 C46.25321056 4.33646035 37.5587819 4.32126194 28.86432743 4.31146908 C24.39513719 4.30626513 19.92596625 4.29921297 15.45678711 4.2878418 C11.13849639 4.27692412 6.82022416 4.27098569 2.5019207 4.26840401 C0.85982409 4.2665657 -0.78227159 4.26297611 -2.42436028 4.25755119 C-10.43018383 4.23217025 -18.32199584 4.21600048 -26.265625 5.36328125 C-26.595625 6.35328125 -26.925625 7.34328125 -27.265625 8.36328125 C-28.255625 8.36328125 -29.245625 8.36328125 -30.265625 8.36328125 C-30.265625 7.70328125 -30.265625 7.04328125 -30.265625 6.36328125 C-22.16430788 -0.88368528 -10.17323003 -0.07307902 0 0 Z " fill="#71F886" transform="translate(118.265625,31.63671875)"/>
<path d="M0 0 C0.33 0.66 0.66 1.32 1 2 C3.9737344 3.09036928 4.88407501 3.03864166 8 2 C9.68346268 8.73385072 9.12517561 15.24894632 8 22 C7.67 20.68 7.34 19.36 7 18 C5.02 18.33 3.04 18.66 1 19 C1.33 16.03 1.66 13.06 2 10 C0.88625 10.2784375 0.88625 10.2784375 -0.25 10.5625 C-3.02182892 11.00347278 -4.36581285 10.76476401 -7 10 C-8.32 10 -9.64 10 -11 10 C-11 9.34 -11 8.68 -11 8 C-12.65 7.67 -14.3 7.34 -16 7 C-16 5.35 -16 3.7 -16 2 C-10.72 2 -5.44 2 0 2 C0 1.34 0 0.68 0 0 Z " fill="#12CE38" transform="translate(160,78)"/>
<path d="M0 0 C0.66 0 1.32 0 2 0 C2 0.99 2 1.98 2 3 C2.58007812 3.10957031 3.16015625 3.21914062 3.7578125 3.33203125 C13.01593625 5.21115538 13.01593625 5.21115538 17 8 C18.15910409 11.63185949 18.24708298 14.39731584 17 18 C19.45224694 17.89386164 19.45224694 17.89386164 22 17 C23.37466625 14.52363988 23.37466625 14.52363988 24 12 C24.66 12.66 25.32 13.32 26 14 C21.88771097 22.39592343 15.78773611 28.10212365 6.94140625 31.35546875 C1.0346554 32.64977671 -4.99369566 32.28830261 -11 32 C-11 31.67 -11 31.34 -11 31 C-6.38 30.67 -1.76 30.34 3 30 C3.33 29.01 3.66 28.02 4 27 C6.70879335 25.64560332 9.00933268 25.93498549 12 26 C12 25.34 12 24.68 12 24 C12.66 23.67 13.32 23.34 14 23 C14 22.34 14 21.68 14 21 C13.01 21.33 12.02 21.66 11 22 C10.67 21.34 10.34 20.68 10 20 C7.67843403 19.59270772 5.3431213 19.25561323 3 19 C3 18.67 3 18.34 3 18 C3.62648437 17.87882812 4.25296875 17.75765625 4.8984375 17.6328125 C5.71570313 17.46523437 6.53296875 17.29765625 7.375 17.125 C8.59316406 16.88136719 8.59316406 16.88136719 9.8359375 16.6328125 C12.18673923 16.13341068 12.18673923 16.13341068 14 14 C14.16687448 11.41645782 14.16687448 11.41645782 14 9 C9.18790099 6.70954986 9.18790099 6.70954986 4 6 C3.34 7.32 2.68 8.64 2 10 C-2.83256305 9.58578031 -4.82679218 7.53586014 -8 4 C-7.236875 3.896875 -6.47375 3.79375 -5.6875 3.6875 C-2.78105605 2.94399108 -1.96433971 2.15141968 0 0 Z " fill="#12BE21" transform="translate(141,88)"/>
<path d="M0 0 C-0.33 0.99 -0.66 1.98 -1 3 C-8.89159768 4.2814978 -16.79776057 4.16401945 -24.76953125 4.16796875 C-26.29790782 4.17118624 -27.82628409 4.17455068 -29.35466003 4.17805481 C-32.54268102 4.18401495 -35.73067501 4.18589762 -38.91870117 4.18530273 C-43.00542316 4.18520057 -47.09197353 4.19892209 -51.17865467 4.21607494 C-54.32788392 4.22717671 -57.47707116 4.22922261 -60.62631798 4.22869301 C-62.13382249 4.22987321 -63.64132808 4.23429722 -65.14881325 4.24202538 C-67.250131 4.25180092 -69.35106898 4.24895858 -71.45239258 4.24291992 C-73.24487175 4.24505745 -73.24487175 4.24505745 -75.07356262 4.24723816 C-78 4 -78 4 -81 2 C-76.8870753 1.02196193 -73.0009651 0.84608459 -68.77880859 0.79467773 C-67.71692574 0.77982834 -67.71692574 0.77982834 -66.6335907 0.76467896 C-64.30523968 0.73322136 -61.97686847 0.70836264 -59.6484375 0.68359375 C-58.02608739 0.66300417 -56.40374239 0.64200719 -54.78140259 0.62062073 C-50.51815008 0.56553695 -46.25485007 0.51608091 -41.99151611 0.46777344 C-37.6505502 0.41754789 -33.30965532 0.36181422 -28.96875 0.30664062 C-22.63333293 0.22692466 -16.29789739 0.14920396 -9.96240234 0.07592773 C-8.68730804 0.06117905 -7.41221375 0.04643036 -6.09848022 0.03123474 C-4.0657301 0.01074327 -2.0328534 0 0 0 Z " fill="#02BD0C" transform="translate(177,138)"/>
<path d="M0 0 C0.33 1.32 0.66 2.64 1 4 C0.34 4 -0.32 4 -1 4 C-1 4.99 -1 5.98 -1 7 C-0.21625 6.505 0.5675 6.01 1.375 5.5 C4 4 4 4 6 4 C6 3.34 6 2.68 6 2 C6.99 1.67 7.98 1.34 9 1 C9.66 1.66 10.32 2.32 11 3 C10.49210937 3.3403125 9.98421875 3.680625 9.4609375 4.03125 C1.14777842 9.88471032 -3.40231269 16.15613231 -6 26 C-6.33 26 -6.66 26 -7 26 C-6.98839844 25.30132812 -6.97679688 24.60265625 -6.96484375 23.8828125 C-6.95582031 22.97273438 -6.94679688 22.06265625 -6.9375 21.125 C-6.92589844 20.22007813 -6.91429688 19.31515625 -6.90234375 18.3828125 C-6.83750743 15.9831415 -6.83750743 15.9831415 -8 14 C-8.66 16.31 -9.32 18.62 -10 21 C-10.66 21 -11.32 21 -12 21 C-11.67 26.94 -11.34 32.88 -11 39 C-10.34 39 -9.68 39 -9 39 C-6.69980639 42.45029042 -6.56867485 43.94554358 -7 48 C-7.99 48.66 -8.98 49.32 -10 50 C-14.59195577 40.3240932 -16.19670229 29.42122761 -12.87109375 19.0859375 C-11.68792439 15.99149456 -10.43186393 12.98645905 -9 10 C-8.34 10 -7.68 10 -7 10 C-6.773125 9.278125 -6.54625 8.55625 -6.3125 7.8125 C-4.75168987 4.46790687 -2.6968713 2.48396041 0 0 Z " fill="#CDF7D2" transform="translate(111,57)"/>
<path d="M0 0 C8.83155316 -0.02314123 17.66309594 -0.0409242 26.49467278 -0.05181217 C30.59525496 -0.05703709 34.69581645 -0.06412768 38.79638672 -0.07543945 C42.75154957 -0.08628218 46.70669248 -0.09227979 50.66186905 -0.09487724 C52.17298827 -0.09672898 53.68410637 -0.10034482 55.19521713 -0.10573006 C57.30708958 -0.11295886 59.41887895 -0.11399016 61.53076172 -0.11352539 C62.73433319 -0.115746 63.93790466 -0.11796661 65.177948 -0.12025452 C68 0 68 0 70 1 C70 1.66 70 2.32 70 3 C46.57 3 23.14 3 -1 3 C-0.67 2.01 -0.34 1.02 0 0 Z " fill="#8AF897" transform="translate(101,41)"/>
<path d="M0 0 C0.33 0.66 0.66 1.32 1 2 C25.75 2 50.5 2 76 2 C76.33 1.34 76.66 0.68 77 0 C77 0.99 77 1.98 77 3 C72.71740506 4.62270729 69.19870467 5.245709 64.62744141 5.22705078 C63.38660797 5.22689972 62.14577454 5.22674866 60.86734009 5.22659302 C59.52874589 5.21638225 58.19015337 5.2059503 56.8515625 5.1953125 C55.47008469 5.19157813 54.08860422 5.18873316 52.7071228 5.18673706 C49.08706229 5.17913392 45.46716457 5.15951437 41.84716797 5.1373291 C38.14683229 5.11679878 34.44647008 5.10772004 30.74609375 5.09765625 C23.49732196 5.07626499 16.24868387 5.04216964 9 5 C9 4.34 9 3.68 9 3 C6.03 3 3.06 3 0 3 C0 2.01 0 1.02 0 0 Z " fill="#3DBF4F" transform="translate(97,144)"/>
<path d="M0 0 C3.00617269 3.00617269 2.59585316 5.82381598 3 10 C3.99 10 4.98 10 6 10 C6.66 14.29 7.32 18.58 8 23 C11.54321888 21.59624169 11.54321888 21.59624169 15 20 C14.875 22.3125 14.875 22.3125 14 25 C9.92909592 27.68309587 7.99702468 28 3 28 C3 35.26 3 42.52 3 50 C2.67 50 2.34 50 2 50 C0.28685475 33.29227756 -0.26567726 16.79080309 0 0 Z " fill="#38E95B" transform="translate(189,54)"/>
<path d="M0 0 C4.455 0.99 4.455 0.99 9 2 C8.01 3.98 7.02 5.96 6 8 C30.42 8 54.84 8 80 8 C80 8.33 80 8.66 80 9 C65.48 9 50.96 9 36 9 C36 9.66 36 10.32 36 11 C37.98 11 39.96 11 42 11 C42 11.33 42 11.66 42 12 C39.36 12.33 36.72 12.66 34 13 C34 12.01 34 11.02 34 10 C33.10168457 9.98541748 32.20336914 9.97083496 31.27783203 9.95581055 C27.9489341 9.89480303 24.62087117 9.82066372 21.29248047 9.73754883 C19.85118658 9.70426822 18.40976137 9.67624596 16.96826172 9.65356445 C14.89754203 9.6200738 12.82802907 9.567767 10.7578125 9.51171875 C9.5114502 9.48553467 8.26508789 9.45935059 6.98095703 9.43237305 C5.99724121 9.28968994 5.01352539 9.14700684 4 9 C3.34 8.01 2.68 7.02 2 6 C0.576875 6.495 0.576875 6.495 -0.875 7 C-4 8 -4 8 -6 8 C-6 8.66 -6 9.32 -6 10 C-6.66 10 -7.32 10 -8 10 C-8.28875 10.78375 -8.5775 11.5675 -8.875 12.375 C-10 15 -10 15 -12 17 C-11.67 15.02 -11.34 13.04 -11 11 C-10.34 11 -9.68 11 -9 11 C-8.71125 10.05125 -8.4225 9.1025 -8.125 8.125 C-7 5 -7 5 -5 3 C-4.319375 2.835 -3.63875 2.67 -2.9375 2.5 C-2.298125 2.335 -1.65875 2.17 -1 2 C-0.67 1.34 -0.34 0.68 0 0 Z " fill="#58E46E" transform="translate(92,37)"/>
<path d="M0 0 C2.62549661 3.93824491 2.13562009 7.20092743 2 11.75 C1.85459499 20.36607323 2.57748355 28.50300442 4 37 C3.01 37 2.02 37 1 37 C1.33 39.97 1.66 42.94 2 46 C0.68 46 -0.64 46 -2 46 C-2 44.68 -2 43.36 -2 42 C-1.34 42 -0.68 42 0 42 C-0.185625 41.030625 -0.37125 40.06125 -0.5625 39.0625 C-0.706875 38.051875 -0.85125 37.04125 -1 36 C-0.505 35.505 -0.505 35.505 0 35 C0.14636054 31.63370749 0.07193479 29.21580438 -1 26 C-1.66 26 -2.32 26 -3 26 C-3.33 26.66 -3.66 27.32 -4 28 C-4 21.4 -4 14.8 -4 8 C-3.34 8 -2.68 8 -2 8 C-2.04125 7.05125 -2.0825 6.1025 -2.125 5.125 C-2 2 -2 2 0 0 Z " fill="#EBF3EA" transform="translate(103,70)"/>
<path d="M0 0 C0.99 0 1.98 0 3 0 C3 13.2 3 26.4 3 40 C1.02 40.495 1.02 40.495 -1 41 C-1.02464705 35.32169922 -1.04283462 29.64342931 -1.05493164 23.96508789 C-1.05997256 22.03181415 -1.06680519 20.09854424 -1.07543945 18.1652832 C-1.08751565 15.39273128 -1.09323057 12.62022959 -1.09765625 9.84765625 C-1.10281754 8.97786636 -1.10797882 8.10807648 -1.11329651 7.21192932 C-1.11349185 5.14094186 -1.06208168 3.07005676 -1 1 C-0.67 0.67 -0.34 0.34 0 0 Z " fill="#72E880" transform="translate(85,59)"/>
<path d="M0 0 C1.27685165 0.00222061 2.55370331 0.00444122 3.86924744 0.00672913 C4.57165054 0.0065831 5.27405365 0.00643707 5.9977417 0.00628662 C8.32985983 0.00698579 10.66189904 0.01477835 12.9940033 0.02259827 C14.60683142 0.02446243 16.21966012 0.02588634 17.83248901 0.02688599 C22.08550062 0.03071129 26.33847828 0.04054167 30.59147644 0.05158997 C34.92812135 0.06180383 39.26477171 0.06638355 43.60142517 0.07142639 C52.11641474 0.08216393 60.63137667 0.09924049 69.14634705 0.12025452 C69.64134705 2.59525452 69.64134705 2.59525452 70.14634705 5.12025452 C45.39634705 5.12025452 20.64634705 5.12025452 -4.85365295 5.12025452 C-3.61163844 0.15219644 -3.61163844 0.15219644 0 0 Z M-1.85365295 1.12025452 C-2.18365295 2.11025452 -2.51365295 3.10025452 -2.85365295 4.12025452 C20.57634705 4.12025452 44.00634705 4.12025452 68.14634705 4.12025452 C68.14634705 3.46025452 68.14634705 2.80025452 68.14634705 2.12025452 C65.29064005 0.69240102 62.86920348 1.00083965 59.67710876 1.00672913 C59.01357391 1.0065831 58.35003906 1.00643707 57.66639709 1.00628662 C55.46957651 1.00698421 53.27284035 1.01476938 51.07603455 1.02259827 C49.55431667 1.02446299 48.0325982 1.02588664 46.51087952 1.02688599 C42.50283658 1.03070685 38.49482979 1.04053347 34.48680115 1.05158997 C30.39806101 1.06181333 26.30931503 1.06638559 22.2205658 1.07142639 C14.19580961 1.08215611 6.17108282 1.09922738 -1.85365295 1.12025452 Z " fill="#70ED81" transform="translate(102.85365295410156,39.87974548339844)"/>
<path d="M0 0 C0.66 0.33 1.32 0.66 2 1 C2 1.99 2 2.98 2 4 C3.32 4 4.64 4 6 4 C8.79393271 9.44081633 7.42415962 13.26904471 5.7265625 18.8046875 C5.36691406 19.89136719 5.36691406 19.89136719 5 21 C4.34 21 3.68 21 3 21 C2.67 21.99 2.34 22.98 2 24 C1.34 24.33 0.68 24.66 0 25 C-0.04898438 24.00097656 -0.09796875 23.00195312 -0.1484375 21.97265625 C-0.22320312 20.68230469 -0.29796875 19.39195313 -0.375 18.0625 C-0.44460937 16.77472656 -0.51421875 15.48695312 -0.5859375 14.16015625 C-0.72257812 13.11730469 -0.85921875 12.07445313 -1 11 C-1.66 10.67 -2.32 10.34 -3 10 C-3.36923077 4.58461538 -3.36923077 4.58461538 -1.5 1.625 C-1.005 1.08875 -0.51 0.5525 0 0 Z " fill="#09CC34" transform="translate(94,54)"/>
<path d="M0 0 C3.87498404 -0.02917234 7.74993958 -0.04685673 11.625 -0.0625 C12.71941406 -0.07087891 13.81382813 -0.07925781 14.94140625 -0.08789062 C16.53662109 -0.09272461 16.53662109 -0.09272461 18.1640625 -0.09765625 C19.62513428 -0.10551147 19.62513428 -0.10551147 21.11572266 -0.11352539 C24.14875321 0.00585494 27.01915268 0.44133276 30 1 C30 1.99 30 2.98 30 4 C28.71086513 4.67154933 27.41859796 5.33708859 26.125 6 C25.40570313 6.37125 24.68640625 6.7425 23.9453125 7.125 C22 8 22 8 20 8 C19.57074219 7.50886719 19.14148438 7.01773438 18.69921875 6.51171875 C16.36630061 4.43622606 14.88107223 4.69294524 11.8125 4.8125 C10.91144531 4.83957031 10.01039062 4.86664063 9.08203125 4.89453125 C8.39496094 4.92933594 7.70789063 4.96414062 7 5 C6.67 4.01 6.34 3.02 6 2 C4.02 2 2.04 2 0 2 C0 1.34 0 0.68 0 0 Z " fill="#38DB56" transform="translate(96,46)"/>
<path d="M0 0 C1.875 1.125 1.875 1.125 3 3 C3.39365568 6.14924548 3.52854531 8.11909116 1.875 10.875 C-0.92446741 12.55468045 -2.79804064 12.45742277 -6 12 C-8.4375 10.375 -8.4375 10.375 -10 8 C-9.9375 4.875 -9.9375 4.875 -9 2 C-5.53076119 -0.31282587 -4.07794425 -0.42478586 0 0 Z " fill="#36D34F" transform="translate(254,143)"/>
<path d="M0 0 C0.33 0 0.66 0 1 0 C1.72642695 25.96303747 1.72642695 25.96303747 -4.109375 32.28515625 C-4.73328125 32.85105469 -5.3571875 33.41695312 -6 34 C-6.495 32.515 -6.495 32.515 -7 31 C-6.38125 30.566875 -5.7625 30.13375 -5.125 29.6875 C0.78777497 22.20957871 -0.44010184 9.23055692 0 0 Z M-8 34 C-7.67 34 -7.34 34 -7 34 C-6.61866701 35.9914056 -6.28674418 37.99279077 -6 40 C-6.33 40.33 -6.66 40.66 -7 41 C-7.23192865 42.51469448 -7.41215238 44.03754562 -7.5625 45.5625 C-7.64628906 46.38878906 -7.73007813 47.21507813 -7.81640625 48.06640625 C-7.87699219 48.70449219 -7.93757813 49.34257812 -8 50 C-7.01 50 -6.02 50 -5 50 C-2 54.22222222 -2 54.22222222 -2 57 C0.475 57.99 0.475 57.99 3 59 C2.67 60.32 2.34 61.64 2 63 C-4.00859948 59.85263837 -7.63601378 55.38797746 -10 49 C-10.30501607 43.7702453 -9.65394725 38.96184174 -8 34 Z " fill="#0DCC38" transform="translate(92,80)"/>
<path d="M0 0 C0.19551338 1.60320974 0.38111983 3.20762986 0.5625 4.8125 C0.66691406 5.70582031 0.77132813 6.59914062 0.87890625 7.51953125 C1 10 1 10 0 13 C-7.38804781 13.36334661 -7.38804781 13.36334661 -10 11.8125 C-11.41113901 9.25481055 -11.56152444 7.87781273 -11 5 C-7.62788239 1.62788239 -4.75276074 0 0 0 Z " fill="#69E47F" transform="translate(256,154)"/>
<path d="M0 0 C5.53846154 -0.36923077 5.53846154 -0.36923077 7.875 1.5 C8.24625 1.995 8.6175 2.49 9 3 C6.36 3.33 3.72 3.66 1 4 C0.67 5.32 0.34 6.64 0 8 C-5.28 8 -10.56 8 -16 8 C-16 7.34 -16 6.68 -16 6 C-16.66 5.67 -17.32 5.34 -18 5 C-17.34 4.67 -16.68 4.34 -16 4 C-16 3.01 -16 2.02 -16 1 C-15.09636719 1.08378906 -14.19273437 1.16757813 -13.26171875 1.25390625 C-12.08222656 1.35574219 -10.90273437 1.45757812 -9.6875 1.5625 C-8.51574219 1.66691406 -7.34398437 1.77132812 -6.13671875 1.87890625 C-2.96967425 2.18577434 -2.96967425 2.18577434 0 1 C0 0.67 0 0.34 0 0 Z " fill="#03C30D" transform="translate(144,111)"/>
<path d="M0 0 C1.65 0 3.3 0 5 0 C5 7.92 5 15.84 5 24 C3.68 24.33 2.36 24.66 1 25 C0 24 0 24 -0.11352539 21.68334961 C-0.10828857 20.68311768 -0.10305176 19.68288574 -0.09765625 18.65234375 C-0.09443359 17.57275391 -0.09121094 16.49316406 -0.08789062 15.38085938 C-0.07951172 14.24455078 -0.07113281 13.10824219 -0.0625 11.9375 C-0.05798828 10.79732422 -0.05347656 9.65714844 -0.04882812 8.48242188 C-0.03699747 5.65489649 -0.0205141 2.8274736 0 0 Z " fill="#7EEF8F" transform="translate(74,64)"/>
<path d="M0 0 C0.99 0.33 1.98 0.66 3 1 C3.02481234 5.87467075 3.0429131 10.74930432 3.05493164 15.62402344 C3.05994473 17.28060548 3.06675689 18.93718313 3.07543945 20.59375 C3.08763793 22.98178189 3.09325867 25.36975502 3.09765625 27.7578125 C3.10281754 28.49242706 3.10797882 29.22704163 3.11329651 29.98391724 C3.11374023 34.09778822 2.80210299 37.96450609 2 42 C1.34 41.67 0.68 41.34 0 41 C0 27.47 0 13.94 0 0 Z " fill="#72E682" transform="translate(184,60)"/>
<path d="M0 0 C2.0625 0.4375 2.0625 0.4375 4 1 C3.01 1.33 2.02 1.66 1 2 C0.67 15.2 0.34 28.4 0 42 C1.485 41.505 1.485 41.505 3 41 C3.33 28.46 3.66 15.92 4 3 C4.33 3 4.66 3 5 3 C5.02469669 9.06892601 5.04285842 15.13782283 5.05493164 21.20678711 C5.05996414 23.27189646 5.06679069 25.33700224 5.07543945 27.40209961 C5.08755236 30.36833578 5.09323911 33.33452489 5.09765625 36.30078125 C5.10281754 37.2258699 5.10797882 38.15095856 5.11329651 39.1040802 C5.11337204 39.96474594 5.11344757 40.82541168 5.11352539 41.7121582 C5.115746 42.46938675 5.11796661 43.2266153 5.12025452 44.00679016 C5 46 5 46 4 49 C2.68 48.67 1.36 48.34 0 48 C-1.26054036 43.13559103 -1.14415808 38.34634948 -1.1328125 33.359375 C-1.13376923 32.43658752 -1.13472595 31.51380005 -1.13571167 30.56304932 C-1.13639038 28.61983166 -1.13455767 26.6766117 -1.13037109 24.73339844 C-1.12499405 21.74669371 -1.13033901 18.76013771 -1.13671875 15.7734375 C-1.13605839 13.88541633 -1.13477811 11.99739526 -1.1328125 10.109375 C-1.13483673 9.21152283 -1.13686096 8.31367065 -1.13894653 7.38861084 C-1.11496623 1.11496623 -1.11496623 1.11496623 0 0 Z " fill="#40DC5C" transform="translate(84,58)"/>
<path d="M0 0 C2.09862498 2.89810116 2 4.28378861 2 8 C0.02 8 -1.96 8 -4 8 C-4.66 10.97 -5.32 13.94 -6 17 C-9.53049819 13.46950181 -9.68042838 11.96748975 -10.07421875 7.2265625 C-9.97071996 4.12159885 -8.98282963 2.35002031 -7 0 C-4.25509788 -1.37245106 -2.87939419 -0.93580311 0 0 Z " fill="#D1F8D4" transform="translate(128,72)"/>
<path d="M0 0 C0.99 0.66 1.98 1.32 3 2 C0.03 2 -2.94 2 -6 2 C-6 2.66 -6 3.32 -6 4 C-2.7 4.99 0.6 5.98 4 7 C4 7.33 4 7.66 4 8 C-2.0245345 8.0946262 -8.04562432 8.09588991 -14.0625 7.75 C-15.37927734 7.68039063 -15.37927734 7.68039063 -16.72265625 7.609375 C-19.66126755 6.82305705 -20.44836184 5.54366911 -22 3 C-14.83517638 -0.43911534 -7.88385683 -0.77135575 0 0 Z " fill="#3AD750" transform="translate(144,56)"/>
<path d="M0 0 C4.62 0 9.24 0 14 0 C12.12220256 3.75559487 11.41607572 4.92965108 8 7 C7.01 7 6.02 7 5 7 C5.33 7.99 5.66 8.98 6 10 C6.99 10.33 7.98 10.66 9 11 C8.67 12.32 8.34 13.64 8 15 C6.49117739 13.73965413 4.99315956 12.46636351 3.5 11.1875 C2.6646875 10.47980469 1.829375 9.77210937 0.96875 9.04296875 C-1 7 -1 7 -1 4 C-2.32 3.34 -3.64 2.68 -5 2 C-3.35 2 -1.7 2 0 2 C0 1.34 0 0.68 0 0 Z " fill="#30D64D" transform="translate(160,48)"/>
<path d="M0 0 C0.33 0 0.66 0 1 0 C1.33 15.51 1.66 31.02 2 47 C2.66 47 3.32 47 4 47 C4.66 38.09 5.32 29.18 6 20 C6.66 20 7.32 20 8 20 C8.22126178 22.45779976 8.42750395 24.91527648 8.625 27.375 C8.68945312 28.07367188 8.75390625 28.77234375 8.8203125 29.4921875 C8.96119739 31.32369111 8.98761659 33.16312748 9 35 C8.34 35.66 7.68 36.32 7 37 C6.69647463 39.56695745 6.62165457 42.10462068 6.5390625 44.6875 C6 47 6 47 3.9609375 48.3125 C2.99027344 48.6528125 2.99027344 48.6528125 2 49 C0 47 0 47 -0.24050903 44.97518921 C-0.23606781 44.14468048 -0.23162659 43.31417175 -0.22705078 42.45849609 C-0.22689972 41.51767181 -0.22674866 40.57684753 -0.22659302 39.60751343 C-0.21627045 38.58976837 -0.20594788 37.57202332 -0.1953125 36.5234375 C-0.1924826 35.48305328 -0.18965271 34.44266907 -0.18673706 33.37075806 C-0.17551704 30.03872306 -0.15040915 26.70695414 -0.125 23.375 C-0.11497256 21.11979554 -0.1058463 18.86458688 -0.09765625 16.609375 C-0.07557178 11.07282546 -0.04207639 5.53643173 0 0 Z " fill="#36DB51" transform="translate(182,60)"/>
<path d="M0 0 C0.05447047 1.41623216 0.09300508 2.83308191 0.125 4.25 C0.14820313 5.03890625 0.17140625 5.8278125 0.1953125 6.640625 C-0.02045562 9.24710389 -0.59064875 10.80767583 -2 13 C-4.125 13.75 -4.125 13.75 -6 14 C-6 14.66 -6 15.32 -6 16 C-8.64 16 -11.28 16 -14 16 C-14 15.34 -14 14.68 -14 14 C-10.535 13.505 -10.535 13.505 -7 13 C-6.95101563 12.07316406 -6.90203125 11.14632812 -6.8515625 10.19140625 C-6.77679687 8.99386719 -6.70203125 7.79632813 -6.625 6.5625 C-6.55539063 5.36753906 -6.48578125 4.17257813 -6.4140625 2.94140625 C-6.27742188 1.97074219 -6.14078125 1.00007812 -6 0 C-3.50907189 -1.24546405 -2.58919267 -0.7767578 0 0 Z " fill="#26C944" transform="translate(38,155)"/>
<path d="M0 0 C0.33 4.29 0.66 8.58 1 13 C0.34 13 -0.32 13 -1 13 C-1 13.99 -1 14.98 -1 16 C-0.01 15.67 0.98 15.34 2 15 C2 15.66 2 16.32 2 17 C1.34 17 0.68 17 0 17 C0.02320313 18.22976562 0.04640625 19.45953125 0.0703125 20.7265625 C0.08908039 22.3593689 0.10727949 23.9921819 0.125 25.625 C0.14175781 26.43324219 0.15851563 27.24148437 0.17578125 28.07421875 C0.21420986 32.80093815 -0.17262906 36.55387702 -2 41 C-2.66 41 -3.32 41 -4 41 C-3.67 40.01 -3.34 39.02 -3 38 C-0.59252667 28.30082686 -1.04599318 18.11140701 -5 9 C-4.6875 6.1875 -4.6875 6.1875 -4 4 C-4 3.01 -4 2.02 -4 1 C-2 0 -2 0 0 0 Z " fill="#19C43A" transform="translate(179,63)"/>
<path d="M0 0 C0 3.74161103 -0.51338171 7.28953557 -1 11 C-1.66 10.34 -2.32 9.68 -3 9 C-3.33 10.65 -3.66 12.3 -4 14 C-4.33 14 -4.66 14 -5 14 C-5 20.93 -5 27.86 -5 35 C-8.5484745 31.4515255 -9.13060429 26.6117289 -9.375 21.75 C-9.15937158 13.34049163 -5.80394462 5.96516531 0 0 Z " fill="#29C441" transform="translate(113,66)"/>
<path d="M0 0 C0.87840996 3.09720845 0.99435406 4.90645403 0 8 C-0.66 8 -1.32 8 -2 8 C-2 10.31 -2 12.62 -2 15 C-1.34 15.33 -0.68 15.66 0 16 C0.66 14.35 1.32 12.7 2 11 C2.66 11 3.32 11 4 11 C2.36228672 16.40445384 -1.19845018 21.4596461 -6.1953125 24.20703125 C-7.08863281 24.59955078 -7.08863281 24.59955078 -8 25 C-8 24.01 -8 23.02 -8 22 C-7.01 22 -6.02 22 -5 22 C-5.99 19.69 -6.98 17.38 -8 15 C-7.4225 14.38125 -6.845 13.7625 -6.25 13.125 C-3.30761693 9.03835685 -1.71808732 4.70646259 0 0 Z " fill="#C4F6CB" transform="translate(169,95)"/>
<path d="M0 0 C0.66 0.33 1.32 0.66 2 1 C2.10920422 8.74136601 1.97159933 16.31395526 1 24 C0.67 23.01 0.34 22.02 0 21 C-0.99 21 -1.98 21 -3 21 C-3 14.73 -3 8.46 -3 2 C-2.01 2.33 -1.02 2.66 0 3 C0 2.01 0 1.02 0 0 Z " fill="#E9F2E9" transform="translate(174,77)"/>
<path d="M0 0 C3.3 0.33 6.6 0.66 10 1 C10 6.43373905 9.60821368 7.2886945 6 11 C5.01 11.33 4.02 11.66 3 12 C2.34 11.67 1.68 11.34 1 11 C1.33 9.02 1.66 7.04 2 5 C1.34 4.67 0.68 4.34 0 4 C0 2.68 0 1.36 0 0 Z " fill="#05C61B" transform="translate(157,95)"/>
<path d="M0 0 C1.9375 0.625 1.9375 0.625 4 2 C5.31147061 6.30911772 4.93330329 8.13339341 3 12 C2.81816297 14.69118811 2.90993176 17.2979527 3 20 C1 19 1 19 -0.125 15.75 C-1 12 -1 12 -0.9375 9.25 C-0.77170777 6.89704528 -0.77170777 6.89704528 -2.5 5.1875 C-2.995 4.795625 -3.49 4.40375 -4 4 C-2.68 2.68 -1.36 1.36 0 0 Z " fill="#17C538" transform="translate(116,65)"/>
<path d="M0 0 C2.8125 0.5625 2.8125 0.5625 6 2 C8.29306574 6.05108281 9.42351736 9.34130899 9 14 C8.34 13.34 7.68 12.68 7 12 C6.34 12.66 5.68 13.32 5 14 C4.67 13.01 4.34 12.02 4 11 C3.01 10.34 2.02 9.68 1 9 C1 7.68 1 6.36 1 5 C0.34 5 -0.32 5 -1 5 C-0.67 3.35 -0.34 1.7 0 0 Z " fill="#DEF6E3" transform="translate(164,62)"/>
<path d="M0 0 C0.99 0 1.98 0 3 0 C3 3.3 3 6.6 3 10 C4.65 10 6.3 10 8 10 C8 10.33 8 10.66 8 11 C5.69 11 3.38 11 1 11 C1 11.66 1 12.32 1 13 C6.28 13 11.56 13 17 13 C17 13.66 17 14.32 17 15 C17.99 15 18.98 15 20 15 C20 15.66 20 16.32 20 17 C18.989375 16.67 17.97875 16.34 16.9375 16 C10.5823727 14.20065673 4.43232844 15.09721706 -2 16 C-1.77183594 15.34773438 -1.54367188 14.69546875 -1.30859375 14.0234375 C0.3485464 8.98513695 1.52613509 5.27210302 0 0 Z " fill="#31C341" transform="translate(108,102)"/>
<path d="M0 0 C2.23413013 3.35119519 2.23847762 4.4177755 2.1953125 8.32421875 C2.18886719 9.35224609 2.18242188 10.38027344 2.17578125 11.43945312 C2.15902344 12.51130859 2.14226562 13.58316406 2.125 14.6875 C2.11597656 15.77095703 2.10695313 16.85441406 2.09765625 17.97070312 C2.0740734 20.6473571 2.04116126 23.32356797 2 26 C1.34 26 0.68 26 0 26 C-1.42705634 20.69276568 -2.4002792 16.46108889 -1 11 C-1.99 11.66 -2.98 12.32 -4 13 C-4 11.35 -4 9.7 -4 8 C-3.34 8 -2.68 8 -2 8 C-2.04125 7.05125 -2.0825 6.1025 -2.125 5.125 C-2 2 -2 2 0 0 Z " fill="#DEF6E5" transform="translate(103,70)"/>
<path d="M0 0 C0.33 0.66 0.66 1.32 1 2 C1.99 2 2.98 2 4 2 C4 1.34 4 0.68 4 0 C4.63292969 0.17402344 5.26585938 0.34804687 5.91796875 0.52734375 C10.10995154 1.17022071 14.09508686 0.85209348 18.3125 0.5625 C19.14845703 0.51029297 19.98441406 0.45808594 20.84570312 0.40429688 C22.89750789 0.27532629 24.94881306 0.13844979 27 0 C27.33 0.66 27.66 1.32 28 2 C27.67 2.66 27.34 3.32 27 4 C26.505 3.835 26.01 3.67 25.5 3.5 C18.43679472 2.08735894 12.56388519 3.43290259 5.734375 5.34375 C3 6 3 6 -1 6 C-0.67 4.02 -0.34 2.04 0 0 Z " fill="#C8F4CF" transform="translate(97,122)"/>
<path d="M0 0 C1.32 0.33 2.64 0.66 4 1 C4 1.33 4 1.66 4 2 C6.31 2.33 8.62 2.66 11 3 C5.74527499 5.71796121 1.35975997 6.18260871 -4.5 6.1875 C-5.65822266 6.20586914 -5.65822266 6.20586914 -6.83984375 6.22460938 C-10.7482648 6.23476991 -12.67641928 6.21572048 -16 4 C-12.43928688 2.95117609 -8.94472103 2.69613047 -5.25 2.4375 C-3.49429688 2.31181641 -3.49429688 2.31181641 -1.703125 2.18359375 C-0.81109375 2.12300781 0.0809375 2.06242187 1 2 C0.67 1.34 0.34 0.68 0 0 Z " fill="#C3F2CB" transform="translate(141,122)"/>
<path d="M0 0 C6.15234375 -0.09765625 6.15234375 -0.09765625 8 0 C8.33 0.33 8.66 0.66 9 1 C8.71269945 3.33944736 8.38063221 5.6739143 8 8 C2.375 8.25 2.375 8.25 -1 6 C-0.67 4.02 -0.34 2.04 0 0 Z " fill="#4BDC61" transform="translate(13,84)"/>
<path d="M0 0 C1.32 0.33 2.64 0.66 4 1 C3.46890625 1.36351562 2.9378125 1.72703125 2.390625 2.1015625 C-2.1959325 5.36571839 -5.05274712 8.23905304 -8 13 C-8.66 13 -9.32 13 -10 13 C-10.12375 13.598125 -10.2475 14.19625 -10.375 14.8125 C-11 17 -11 17 -13 20 C-12.49152605 16.94915633 -11.98164194 13.90820969 -11.375 10.875 C-11.02082265 8.15964033 -11.11581894 6.55430083 -12 4 C-10.68 3.67 -9.36 3.34 -8 3 C-8 3.66 -8 4.32 -8 5 C-7.236875 4.690625 -6.47375 4.38125 -5.6875 4.0625 C-3.81210323 3.32106407 -1.91315348 2.63771783 0 2 C0 1.34 0 0.68 0 0 Z " fill="#30C647" transform="translate(112,54)"/>
<path d="M0 0 C13.86 0 27.72 0 42 0 C42 0.33 42 0.66 42 1 C34.41 1 26.82 1 19 1 C19.33 1.99 19.66 2.98 20 4 C13.4 3.34 6.8 2.68 0 2 C0 1.34 0 0.68 0 0 Z " fill="#47DF5E" transform="translate(128,46)"/>
<path d="M0 0 C1.33599921 0.32248257 2.66893378 0.65772583 4 1 C5.5159375 0.7215625 5.5159375 0.7215625 7.0625 0.4375 C10 0 10 0 13 2 C10.69 2 8.38 2 6 2 C6 2.99 6 3.98 6 5 C4.35 5 2.7 5 1 5 C1 5.66 1 6.32 1 7 C-3.38461538 10 -3.38461538 10 -6 10 C-6 9.01 -6 8.02 -6 7 C-5.34 7 -4.68 7 -4 7 C-3.896875 6.21625 -3.79375 5.4325 -3.6875 4.625 C-3 2 -3 2 0 0 Z " fill="#DBF4E1" transform="translate(116,54)"/>
<path d="M0 0 C2.46616396 2.46616396 2.30690399 3.98181457 2.37890625 7.359375 C2.37761719 8.06578125 2.37632812 8.7721875 2.375 9.5 C2.37628906 10.21671875 2.37757813 10.9334375 2.37890625 11.671875 C2.25929962 17.71744652 0.88075259 22.6500309 -2 28 C-4 24.25 -4 24.25 -4 22 C-3.34 22 -2.68 22 -2 22 C-1.2002814 13.70206216 -1.2002814 13.70206216 -1 5.375 C-1 2 -1 2 0 0 Z " fill="#B3F1C1" transform="translate(176,78)"/>
<path d="M0 0 C1.45212891 -0.03867188 1.45212891 -0.03867188 2.93359375 -0.078125 C5.5625 0.25 5.5625 0.25 7.41015625 1.765625 C7.79042969 2.25546875 8.17070313 2.7453125 8.5625 3.25 C7.44875 3.188125 6.335 3.12625 5.1875 3.0625 C0.13045444 3.0625 -4.85355581 4.07865802 -9.4375 6.25 C-10.39820434 9.13211302 -10.54331883 10.94850044 -10.5 13.9375 C-10.49097656 14.74574219 -10.48195313 15.55398437 -10.47265625 16.38671875 C-10.46105469 17.00160156 -10.44945312 17.61648437 -10.4375 18.25 C-11.0975 17.92 -11.7575 17.59 -12.4375 17.25 C-13.29847841 7.56877615 -13.29847841 7.56877615 -10.0625 3.6875 C-6.47934025 0.36028023 -4.79088894 0.07634883 0 0 Z " fill="#67E27A" transform="translate(26.4375,148.75)"/>
<path d="M0 0 C0.66 0 1.32 0 2 0 C2 0.99 2 1.98 2 3 C3.32 3.66 4.64 4.32 6 5 C5.525625 5.45375 5.05125 5.9075 4.5625 6.375 C2.90972192 7.93258204 2.90972192 7.93258204 2 10 C-2.83256305 9.58578031 -4.82679218 7.53586014 -8 4 C-7.236875 3.896875 -6.47375 3.79375 -5.6875 3.6875 C-2.78105605 2.94399108 -1.96433971 2.15141968 0 0 Z " fill="#0EC430" transform="translate(141,88)"/>
<path d="M0 0 C0.99 0 1.98 0 3 0 C3.474375 0.495 3.94875 0.99 4.4375 1.5 C6.11993064 3.46168789 6.11993064 3.46168789 10 3 C10 5.31 10 7.62 10 10 C9.01 10 8.02 10 7 10 C7 10.66 7 11.32 7 12 C6.01 12 5.02 12 4 12 C4.33 10.68 4.66 9.36 5 8 C4.01 8 3.02 8 2 8 C1.34 5.36 0.68 2.72 0 0 Z " fill="#0DCC31" transform="translate(130,72)"/>
<path d="M0 0 C1.09658936 3.28976808 0.79953138 4.71303767 0 8 C-0.66 8 -1.32 8 -2 8 C-2.59732819 10.76264289 -3 13.16032769 -3 16 C-4.32 16.33 -5.64 16.66 -7 17 C-7 16.34 -7 15.68 -7 15 C-7.66 15 -8.32 15 -9 15 C-9 15.99 -9 16.98 -9 18 C-10.65 18 -12.3 18 -14 18 C-13.319375 17.360625 -12.63875 16.72125 -11.9375 16.0625 C-7.23905123 11.36405123 -2.78911717 6.05911662 0 0 Z " fill="#20C543" transform="translate(174,104)"/>
<path d="M0 0 C0.99 0.495 0.99 0.495 2 1 C2 2.98 2 4.96 2 7 C2.99 7 3.98 7 5 7 C8 11.22222222 8 11.22222222 8 14 C10.475 14.99 10.475 14.99 13 16 C12.67 17.32 12.34 18.64 12 20 C5.91960872 16.81503314 2.81309613 12.21225395 0 6 C-0.375 2.375 -0.375 2.375 0 0 Z " fill="#1AC83C" transform="translate(82,123)"/>
<path d="M0 0 C1.32 0 2.64 0 4 0 C4.05451714 2.04136395 4.09302485 4.08315856 4.125 6.125 C4.14820313 7.26195313 4.17140625 8.39890625 4.1953125 9.5703125 C3.93552774 14.13213294 3.28515921 17.71484079 0 21 C0 14.07 0 7.14 0 0 Z " fill="#1AD442" transform="translate(187,112)"/>
<path d="M0 0 C-0.33 0.99 -0.66 1.98 -1 3 C-2.65 3 -4.3 3 -6 3 C-6.33 2.01 -6.66 1.02 -7 0 C-12.61 0 -18.22 0 -24 0 C-23.67 -0.66 -23.34 -1.32 -23 -2 C-14.85944723 -3.57098387 -7.86592072 -2.45810023 0 0 Z " fill="#E3F9F5" transform="translate(151,52)"/>
<path d="M0 0 C0.33 0 0.66 0 1 0 C1 14.19 1 28.38 1 43 C-0.32 43 -1.64 43 -3 43 C-3 41.68 -3 40.36 -3 39 C-2.01 38.505 -2.01 38.505 -1 38 C-0.67 25.46 -0.34 12.92 0 0 Z " fill="#53DF67" transform="translate(88,61)"/>
<path d="M0 0 C1.65 0 3.3 0 5 0 C4.67 0.99 4.34 1.98 4 3 C4.99 3 5.98 3 7 3 C7.33 4.65 7.66 6.3 8 8 C5.69 8.66 3.38 9.32 1 10 C0.67 6.7 0.34 3.4 0 0 Z " fill="#E6F3EA" transform="translate(145,95)"/>
<path d="M0 0 C1.875 1.125 1.875 1.125 3 3 C3.1875 6.1875 3.1875 6.1875 3 9 C2.34 7.68 1.68 6.36 1 5 C-0.32 5.33 -1.64 5.66 -3 6 C-3 5.34 -3 4.68 -3 4 C-3.61875 4.185625 -4.2375 4.37125 -4.875 4.5625 C-7 5 -7 5 -9 4 C-8.67 3.01 -8.34 2.02 -8 1 C-5.20129973 -0.39935013 -3.09501208 -0.25265405 0 0 Z " fill="#41D459" transform="translate(254,143)"/>
<path d="M0 0 C2.31 0.33 4.62 0.66 7 1 C6.67 1.66 6.34 2.32 6 3 C5.01 3 4.02 3 3 3 C3.185625 3.721875 3.37125 4.44375 3.5625 5.1875 C4.01995307 8.12826973 3.73516357 10.14103058 3 13 C1.68 12.67 0.36 12.34 -1 12 C-1.08159574 7.83861737 -0.98248524 4.0527516 0 0 Z " fill="#E4F2EE" transform="translate(123,79)"/>
<path d="M0 0 C3.68337046 5.52505569 2.03038513 12.81768925 1 19 C0.67 17.68 0.34 16.36 0 15 C-1.32 14.67 -2.64 14.34 -4 14 C-3.505 12.6078125 -3.505 12.6078125 -3 11.1875 C-1.85032996 8.07970709 -1.85032996 8.07970709 -2 5 C-1.37400383 3.31763529 -0.71247732 1.6476038 0 0 Z " fill="#0ACD2A" transform="translate(167,81)"/>
<path d="M0 0 C0.33 1.32 0.66 2.64 1 4 C0.1028125 4.309375 0.1028125 4.309375 -0.8125 4.625 C-3.29439904 5.91024607 -3.29439904 5.91024607 -4.4375 9.0625 C-6 12 -6 12 -8.6875 12.875 C-9.450625 12.91625 -10.21375 12.9575 -11 13 C-11 10.69 -11 8.38 -11 6 C-10.37351563 5.81824219 -9.74703125 5.63648437 -9.1015625 5.44921875 C-7.87566406 5.07216797 -7.87566406 5.07216797 -6.625 4.6875 C-5.81289062 4.44386719 -5.00078125 4.20023437 -4.1640625 3.94921875 C-1.66815371 3.08631815 -1.66815371 3.08631815 0 0 Z " fill="#77F487" transform="translate(204,76)"/>
<path d="M0 0 C0.33 1.32 0.66 2.64 1 4 C0.34 4 -0.32 4 -1 4 C-1.33 4.66 -1.66 5.32 -2 6 C-2.33 5.67 -2.66 5.34 -3 5 C-3.804375 5.165 -4.60875 5.33 -5.4375 5.5 C-8 6 -8 6 -10 5 C-10 3.35 -10 1.7 -10 0 C-6.7169902 -1.6415049 -3.57454967 -0.51888624 0 0 Z " fill="#14D13F" transform="translate(106,53)"/>
<path d="M0 0 C0.99 0 1.98 0 3 0 C2.67854004 0.65250732 2.35708008 1.30501465 2.02587891 1.97729492 C0.73388382 5.78409911 0.64623647 9.3873605 0.5859375 13.36328125 C0.56657135 14.15526413 0.5472052 14.94724701 0.5272522 15.76322937 C0.46772768 18.27954519 0.42118042 20.79590744 0.375 23.3125 C0.33679519 25.0241079 0.29774201 26.73569709 0.2578125 28.44726562 C0.1620487 32.63135749 0.0779182 36.81553931 0 41 C-0.33 41 -0.66 41 -1 41 C-1.02464705 35.32169922 -1.04283462 29.64342931 -1.05493164 23.96508789 C-1.05997256 22.03181415 -1.06680519 20.09854424 -1.07543945 18.1652832 C-1.08751565 15.39273128 -1.09323057 12.62022959 -1.09765625 9.84765625 C-1.10281754 8.97786636 -1.10797882 8.10807648 -1.11329651 7.21192932 C-1.11349185 5.14094186 -1.06208168 3.07005676 -1 1 C-0.67 0.67 -0.34 0.34 0 0 Z " fill="#5BE06F" transform="translate(85,59)"/>
<path d="M0 0 C-2.3125 2.5 -2.3125 2.5 -5 5 C-5.99 5 -6.98 5 -8 5 C-7.67 5.99 -7.34 6.98 -7 8 C-6.01 8.33 -5.02 8.66 -4 9 C-4.33 10.32 -4.66 11.64 -5 13 C-7.97 10.36 -10.94 7.72 -14 5 C-12.68 4.67 -11.36 4.34 -10 4 C-9.195625 3.319375 -8.39125 2.63875 -7.5625 1.9375 C-4.69702501 -0.22907865 -3.49284103 -0.39918183 0 0 Z " fill="#37CA51" transform="translate(173,50)"/>
<path d="M0 0 C0.33 0 0.66 0 1 0 C1.66 4.29 2.32 8.58 3 13 C6.54321888 11.59624169 6.54321888 11.59624169 10 10 C9.75 12.375 9.75 12.375 9 15 C7.1875 16.375 7.1875 16.375 5 17 C2.75 16.625 2.75 16.625 1 16 C-0.06723961 12.53777385 -0.10173486 9.35960734 -0.0625 5.75 C-0.04896484 4.13351563 -0.04896484 4.13351563 -0.03515625 2.484375 C-0.02355469 1.66453125 -0.01195312 0.8446875 0 0 Z " fill="#46E560" transform="translate(194,64)"/>
<path d="M0 0 C0.33 0 0.66 0 1 0 C1.91396333 8.71650212 1.91396333 8.71650212 -0.265625 11.77734375 C-4.11413043 15 -4.11413043 15 -7 15 C-7 15.66 -7 16.32 -7 17 C-9.31 17.33 -11.62 17.66 -14 18 C-14 17.34 -14 16.68 -14 16 C-14.99 15.67 -15.98 15.34 -17 15 C-11.555 14.505 -11.555 14.505 -6 14 C-6 13.34 -6 12.68 -6 12 C-4.68 11.67 -3.36 11.34 -2 11 C-1.34 7.37 -0.68 3.74 0 0 Z " fill="#6FF487" transform="translate(38,157)"/>
<path d="M0 0 C0.99 0.33 1.98 0.66 3 1 C3 1.66 3 2.32 3 3 C7.29 2.34 11.58 1.68 16 1 C16 1.66 16 2.32 16 3 C15.34 3 14.68 3 14 3 C14 3.66 14 4.32 14 5 C12.68 5 11.36 5 10 5 C10 5.66 10 6.32 10 7 C8.68 7 7.36 7 6 7 C6 6.34 6 5.68 6 5 C5.071875 4.7834375 5.071875 4.7834375 4.125 4.5625 C2 4 2 4 0 3 C0 2.01 0 1.02 0 0 Z " fill="#02C50B" transform="translate(128,105)"/>
<path d="M0 0 C0.33 4.29 0.66 8.58 1 13 C0.01 13 -0.98 13 -2 13 C-2.33 11.35 -2.66 9.7 -3 8 C-3.66 8 -4.32 8 -5 8 C-4.7525 7.1028125 -4.7525 7.1028125 -4.5 6.1875 C-3.8885876 3.88655664 -3.8885876 3.88655664 -4 1 C-2 0 -2 0 0 0 Z " fill="#07C833" transform="translate(179,63)"/>
<path d="M0 0 C0 0.66 0 1.32 0 2 C-1.32 2 -2.64 2 -4 2 C-4 2.66 -4 3.32 -4 4 C-8.38461538 7 -8.38461538 7 -11 7 C-10.3125 3.625 -10.3125 3.625 -9 0 C-5.43989331 -2.34217545 -3.52307152 -2.34871435 0 0 Z " fill="#26D33F" transform="translate(116,52)"/>
<path d="M0 0 C0.99 0.33 1.98 0.66 3 1 C2.34 1 1.68 1 1 1 C0.34 2.32 -0.32 3.64 -1 5 C-1.66 5 -2.32 5 -3 5 C-3.33 5.99 -3.66 6.98 -4 8 C-4.66 8 -5.32 8 -6 8 C-6 8.66 -6 9.32 -6 10 C-6.66 10 -7.32 10 -8 10 C-8.28875 10.78375 -8.5775 11.5675 -8.875 12.375 C-10 15 -10 15 -12 17 C-11.67 15.02 -11.34 13.04 -11 11 C-10.34 11 -9.68 11 -9 11 C-8.71125 10.05125 -8.4225 9.1025 -8.125 8.125 C-7 5 -7 5 -5 3 C-4.319375 2.835 -3.63875 2.67 -2.9375 2.5 C-2.298125 2.335 -1.65875 2.17 -1 2 C-0.67 1.34 -0.34 0.68 0 0 Z " fill="#5BE171" transform="translate(92,37)"/>
<path d="M0 0 C0.33 0.99 0.66 1.98 1 3 C1.99 3.33 2.98 3.66 4 4 C2.02 4.99 2.02 4.99 0 6 C0 5.34 0 4.68 0 4 C-3.3 4 -6.6 4 -10 4 C-9.67 3.01 -9.34 2.02 -9 1 C-6.04335481 -0.4783226 -3.25770263 -0.06032783 0 0 Z " fill="#D7F9E2" transform="translate(121,116)"/>
<path d="M0 0 C0.928125 0.20625 1.85625 0.4125 2.8125 0.625 C2.8125 2.275 2.8125 3.925 2.8125 5.625 C-0.1575 5.295 -3.1275 4.965 -6.1875 4.625 C-6.1875 3.635 -6.1875 2.645 -6.1875 1.625 C-3.1875 -0.375 -3.1875 -0.375 0 0 Z " fill="#E9F3EA" transform="translate(141.1875,98.375)"/>
<path d="M0 0 C7.34159292 -0.36106195 7.34159292 -0.36106195 9.9375 1.0625 C11.51168665 3.93307565 11.69573087 6.7747472 12 10 C10.68 10 9.36 10 8 10 C7.67 7.36 7.34 4.72 7 2 C4.69 2.33 2.38 2.66 0 3 C0 2.01 0 1.02 0 0 Z " fill="#24D849" transform="translate(176,46)"/>
<path d="M0 0 C1 3 1 3 0.0625 5.1875 C-0.288125 5.785625 -0.63875 6.38375 -1 7 C-1.99 7 -2.98 7 -4 7 C-4 7.66 -4 8.32 -4 9 C-6.31 8.67 -8.62 8.34 -11 8 C-11 8.66 -11 9.32 -11 10 C-12.32 9.34 -13.64 8.68 -15 8 C-14.33613281 7.75765625 -13.67226562 7.5153125 -12.98828125 7.265625 C-8.04268244 5.38846341 -3.92869187 3.66677907 0 0 Z " fill="#CFF7D2" transform="translate(160,111)"/>
<path d="M0 0 C-0.99 0.495 -0.99 0.495 -2 1 C-2 1.99 -2 2.98 -2 4 C-6.70461323 5.86132673 -10.8757696 6.2509496 -15.875 6.125 C-16.56335938 6.11597656 -17.25171875 6.10695313 -17.9609375 6.09765625 C-19.64077838 6.07432513 -21.32043746 6.03846326 -23 6 C-23 5.67 -23 5.34 -23 5 C-18.38 4.67 -13.76 4.34 -9 4 C-8.67 3.01 -8.34 2.02 -8 1 C-5.29120665 -0.35439668 -2.99066732 -0.06501451 0 0 Z " fill="#13BC1B" transform="translate(153,114)"/>
<path d="M0 0 C0.33 0.99 0.66 1.98 1 3 C0.649375 3.639375 0.29875 4.27875 -0.0625 4.9375 C-0.371875 5.618125 -0.68125 6.29875 -1 7 C-0.21690533 9.23470405 -0.21690533 9.23470405 1 11 C0.01 11.66 -0.98 12.32 -2 13 C-2.99 14.485 -2.99 14.485 -4 16 C-4.66 14.68 -5.32 13.36 -6 12 C-5.34 12 -4.68 12 -4 12 C-4 8.7 -4 5.4 -4 2 C-2.68 1.34 -1.36 0.68 0 0 Z " fill="#CEF9D0" transform="translate(130,80)"/>
<path d="M0 0 C1.65 0.33 3.3 0.66 5 1 C5 1.66 5 2.32 5 3 C5.99 3 6.98 3 8 3 C8 3.99 8 4.98 8 6 C5 6 2 6 -1 6 C-1.33 5.01 -1.66 4.02 -2 3 C-1.34 3 -0.68 3 0 3 C0 2.01 0 1.02 0 0 Z M2 6 C2.33 6.99 2.66 7.98 3 9 C2.01 8.67 1.02 8.34 0 8 C0.66 7.34 1.32 6.68 2 6 Z " fill="#0FC834" transform="translate(165,119)"/>
<path d="M0 0 C0.66 0.33 1.32 0.66 2 1 C2 5.29 2 9.58 2 14 C1.01 14.33 0.02 14.66 -1 15 C-2 14 -2 14 -2.09765625 11.49609375 C-2.08605469 10.48675781 -2.07445312 9.47742188 -2.0625 8.4375 C-2.05347656 7.42558594 -2.04445312 6.41367188 -2.03515625 5.37109375 C-2.02355469 4.58863281 -2.01195312 3.80617188 -2 3 C-1.34 3 -0.68 3 0 3 C0 2.01 0 1.02 0 0 Z " fill="#E1F7EF" transform="translate(174,77)"/>
<path d="M0 0 C6.93 3.96 6.93 3.96 14 8 C10 10 10 10 6 10 C6 9.34 6 8.68 6 8 C5.34 8 4.68 8 4 8 C4 7.01 4 6.02 4 5 C2.68 4.34 1.36 3.68 0 3 C0 2.01 0 1.02 0 0 Z " fill="#17C229" transform="translate(128,98)"/>
<path d="M0 0 C3.61225459 3.61225459 3.15967109 7.69371761 3.1875 12.625 C3.20167969 13.77226563 3.21585938 14.91953125 3.23046875 16.1015625 C3 19 3 19 1 21 C1 15.39 1 9.78 1 4 C-0.32 4.99 -1.64 5.98 -3 7 C-3.1875 4.625 -3.1875 4.625 -3 2 C-2.01 1.34 -1.02 0.68 0 0 Z " fill="#36C84E" transform="translate(167,76)"/>
<path d="M0 0 C2.02045442 0.60183749 4.02111039 1.27306096 6 2 C6.33 2.66 6.66 3.32 7 4 C5.68 4 4.36 4 3 4 C2.67 5.32 2.34 6.64 2 8 C2.99 7.67 3.98 7.34 5 7 C4.34 8.32 3.68 9.64 3 11 C1.62437146 9.71034824 0.29233607 8.37310707 -1 7 C-1 6.34 -1 5.68 -1 5 C-1.99 4.67 -2.98 4.34 -4 4 C-2.68 3.67 -1.36 3.34 0 3 C0 2.01 0 1.02 0 0 Z " fill="#C7F3C9" transform="translate(161,59)"/>
<path d="M0 0 C-1.32 0.33 -2.64 0.66 -4 1 C-4 1.66 -4 2.32 -4 3 C-4.99 3 -5.98 3 -7 3 C-7.33 5.64 -7.66 8.28 -8 11 C-6.68 11.33 -5.36 11.66 -4 12 C-7.875 14 -7.875 14 -9 14 C-9.2226746 12.56465159 -9.42761906 11.12654475 -9.625 9.6875 C-9.74101563 8.88699219 -9.85703125 8.08648437 -9.9765625 7.26171875 C-10 5 -10 5 -8 2 C-7.34 2 -6.68 2 -6 2 C-6 1.34 -6 0.68 -6 0 C-3.50907189 -1.24546405 -2.58919267 -0.7767578 0 0 Z " fill="#33DA56" transform="translate(92,45)"/>
<path d="M0 0 C0.66 1.32 1.32 2.64 2 4 C-1.625 8.875 -1.625 8.875 -5 10 C-5.66 9.67 -6.32 9.34 -7 9 C-7 7.68 -7 6.36 -7 5 C-6.34 5 -5.68 5 -5 5 C-4.67 4.34 -4.34 3.68 -4 3 C-3.01 3.66 -2.02 4.32 -1 5 C-0.67 3.35 -0.34 1.7 0 0 Z " fill="#02C90A" transform="translate(165,97)"/>
<path d="M0 0 C0.33 1.32 0.66 2.64 1 4 C2.98 4 4.96 4 7 4 C6.67 5.65 6.34 7.3 6 9 C5.01 9.33 4.02 9.66 3 10 C1.10646634 8.10646634 -0.4198632 6.15473199 -2 4 C-1.34 2.68 -0.68 1.36 0 0 Z " fill="#1DD53C" transform="translate(129,65)"/>
<path d="M0 0 C2.97 0.495 2.97 0.495 6 1 C6 2.32 6 3.64 6 5 C4.02 5 2.04 5 0 5 C0 5.99 0 6.98 0 8 C-0.66 8 -1.32 8 -2 8 C-1.47731534 5.23723823 -0.89130413 2.6739124 0 0 Z " fill="#EBF4EB" transform="translate(122,73)"/>
<path d="M0 0 C0.66 0 1.32 0 2 0 C4.30019361 3.45029042 4.43132515 4.94554358 4 9 C3.01 9.66 2.02 10.32 1 11 C-0.20272819 8.59454362 -0.10071472 7.05003047 -0.0625 4.375 C-0.05347656 3.55773437 -0.04445313 2.74046875 -0.03515625 1.8984375 C-0.02355469 1.27195312 -0.01195313 0.64546875 0 0 Z " fill="#CDFAE1" transform="translate(100,96)"/>
<path d="M0 0 C0.969375 0.165 1.93875 0.33 2.9375 0.5 C5.9052331 1.29133785 5.9052331 1.29133785 8 0 C8.99 0.33 9.98 0.66 11 1 C11 1.99 11 2.98 11 4 C10.360625 4.103125 9.72125 4.20625 9.0625 4.3125 C8.381875 4.539375 7.70125 4.76625 7 5 C6.67 5.99 6.34 6.98 6 8 C5.38125 6.5459375 5.38125 6.5459375 4.75 5.0625 C3.35100832 1.87739901 3.35100832 1.87739901 0.8125 1.125 C0.214375 1.08375 -0.38375 1.0425 -1 1 C-0.67 0.67 -0.34 0.34 0 0 Z " fill="#23D139" transform="translate(115,64)"/>
<path d="M0 0 C1.2375 0.2475 2.475 0.495 3.75 0.75 C3.75 1.08 3.75 1.41 3.75 1.75 C2.1 1.75 0.45 1.75 -1.25 1.75 C-1.25 3.4 -1.25 5.05 -1.25 6.75 C-1.91 6.09 -2.57 5.43 -3.25 4.75 C-5.85280568 5.07041397 -5.85280568 5.07041397 -8.25 5.75 C-8.25 3.75 -8.25 3.75 -6.75 1.5625 C-3.89695215 -0.50595969 -3.33965375 -0.43226015 0 0 Z " fill="#48E766" transform="translate(97.25,38.25)"/>
<path d="M0 0 C0.66 0 1.32 0 2 0 C2 1.98 2 3.96 2 6 C0.02 6 -1.96 6 -4 6 C-4.66 4.68 -5.32 3.36 -6 2 C-4 2 -2 2 0 2 C0 1.34 0 0.68 0 0 Z " fill="#2CC344" transform="translate(19,86)"/>
<path d="M0 0 C0.66 0 1.32 0 2 0 C2 1.32 2 2.64 2 4 C1.34 4 0.68 4 0 4 C-0.66 5.65 -1.32 7.3 -2 9 C-2.99 8.67 -3.98 8.34 -5 8 C-4.67 6.02 -4.34 4.04 -4 2 C-3.01 2 -2.02 2 -1 2 C-0.67 1.34 -0.34 0.68 0 0 Z " fill="#E7F3E9" transform="translate(171,102)"/>
<path d="M0 0 C-0.33 2.31 -0.66 4.62 -1 7 C-1.99 7 -2.98 7 -4 7 C-5.67099977 7.31088368 -7.33871537 7.64080332 -9 8 C-8.01 7.67 -7.02 7.34 -6 7 C-5.87625 6.030625 -5.7525 5.06125 -5.625 4.0625 C-5.41875 3.051875 -5.2125 2.04125 -5 1 C-3 0 -3 0 0 0 Z " fill="#5CEA70" transform="translate(206,69)"/>
<path d="M0 0 C1.9375 1.4375 1.9375 1.4375 2.6875 4.5625 C2.77 5.51125 2.8525 6.46 2.9375 7.4375 C-0.5275 5.4575 -0.5275 5.4575 -4.0625 3.4375 C-4.0625 2.4475 -4.0625 1.4575 -4.0625 0.4375 C-2.0625 -0.5625 -2.0625 -0.5625 0 0 Z " fill="#10CE2A" transform="translate(118.0625,65.5625)"/>
<path d="M0 0 C0.99 0 1.98 0 3 0 C4 3 4 3 3.5 5.375 C2.95221266 8.25088353 3.27719833 10.18910462 4 13 C0.72634348 9.40953801 -0.67458078 6.88128836 -1 2 C-0.67 1.34 -0.34 0.68 0 0 Z " fill="#1FC942" transform="translate(169,56)"/>
<path d="M0 0 C0.79921875 0.00902344 1.5984375 0.01804688 2.421875 0.02734375 C3.02515625 0.03894531 3.6284375 0.05054688 4.25 0.0625 C1.28821227 1.73360042 -1.12071192 2.38932752 -4.5 2.6875 C-5.69882813 2.79964844 -5.69882813 2.79964844 -6.921875 2.9140625 C-7.52515625 2.96304688 -8.1284375 3.01203125 -8.75 3.0625 C-9.08 4.0525 -9.41 5.0425 -9.75 6.0625 C-10.74 6.0625 -11.73 6.0625 -12.75 6.0625 C-12.75 5.4025 -12.75 4.7425 -12.75 4.0625 C-8.7527217 0.49350152 -5.23535974 -0.07699058 0 0 Z " fill="#73F188" transform="translate(100.75,33.9375)"/>
<path d="M0 0 C0.66 0.99 1.32 1.98 2 3 C0.18808118 4.81191882 -2.72351299 4.4723513 -5.1875 4.71875 C-7.0167533 4.81998043 -7.0167533 4.81998043 -8 6 C-10.67058851 6.14115161 -13.32432238 6.04247107 -16 6 C-16 5.67 -16 5.34 -16 5 C-15.01257813 4.72285156 -14.02515625 4.44570312 -13.0078125 4.16015625 C-11.71351203 3.79437568 -10.41924281 3.42848451 -9.125 3.0625 C-8.47402344 2.88009766 -7.82304687 2.69769531 -7.15234375 2.50976562 C-3.49203515 1.48107307 -3.49203515 1.48107307 0 0 Z " fill="#1EC037" transform="translate(156,123)"/>
<path d="M0 0 C0.99 0.66 1.98 1.32 3 2 C-1 5 -5 8 -9 11 C-8.67 9.68 -8.34 8.36 -8 7 C-7.34 7 -6.68 7 -6 7 C-6 6.01 -6 5.02 -6 4 C-4.68 3.67 -3.36 3.34 -2 3 C-2 2.34 -2 1.68 -2 1 C-1.34 0.67 -0.68 0.34 0 0 Z " fill="#C1F8C5" transform="translate(119,58)"/>
<path d="M0 0 C1.02577148 0.00676758 1.02577148 0.00676758 2.07226562 0.01367188 C3.73571604 0.0253044 5.3991205 0.04323306 7.0625 0.0625 C7.0625 0.3925 7.0625 0.7225 7.0625 1.0625 C6.1446875 1.11148438 5.226875 1.16046875 4.28125 1.2109375 C-2.36614086 1.6159256 -8.55137859 2.14666358 -14.9375 4.0625 C-14.9375 3.0725 -14.9375 2.0825 -14.9375 1.0625 C-9.89895894 0.23038724 -5.1249338 -0.0453534 0 0 Z " fill="#C4FBCC" transform="translate(136.9375,54.9375)"/>
<path d="M0 0 C0.33 0 0.66 0 1 0 C1 2.64 1 5.28 1 8 C1.99 8 2.98 8 4 8 C4 8.66 4 9.32 4 10 C3.34 10 2.68 10 2 10 C1.34 11.65 0.68 13.3 0 15 C-0.99 14.34 -1.98 13.68 -3 13 C-2.34 13 -1.68 13 -1 13 C-0.67 8.71 -0.34 4.42 0 0 Z " fill="#D9F9DD" transform="translate(170,90)"/>
<path d="M0 0 C0.99 0 1.98 0 3 0 C4.60546875 1.96875 4.60546875 1.96875 6.1875 4.5 C6.71730469 5.3353125 7.24710937 6.170625 7.79296875 7.03125 C8.19128906 7.6809375 8.58960937 8.330625 9 9 C8.01 10.485 8.01 10.485 7 12 C6.34 11.67 5.68 11.34 5 11 C4.690625 9.845 4.38125 8.69 4.0625 7.5 C3.711875 6.345 3.36125 5.19 3 4 C2.01 3.67 1.02 3.34 0 3 C0 2.01 0 1.02 0 0 Z " fill="#1DC528" transform="translate(117,86)"/>
<path d="M0 0 C0 0.66 0 1.32 0 2 C-2.97 1.505 -2.97 1.505 -6 1 C-6.12375 1.53625 -6.2475 2.0725 -6.375 2.625 C-7.12206016 5.4638286 -8.05303364 8.22223202 -9 11 C-9.33 11 -9.66 11 -10 11 C-10.32469403 6.34605219 -9.79790518 3.76641082 -7 0 C-4.3333581 -1.33332095 -2.83319697 -0.67102033 0 0 Z " fill="#B4F7BC" transform="translate(128,72)"/>
<path d="M0 0 C1.75070517 0.11470137 3.50057536 0.24219028 5.25 0.375 C6.22453125 0.44460937 7.1990625 0.51421875 8.203125 0.5859375 C10.89633189 0.98465249 12.66963279 1.63507063 15 3 C14.34 3.66 13.68 4.32 13 5 C9.70342144 5 7.83635572 4.25666731 4.8125 3 C3.91144531 2.62875 3.01039063 2.2575 2.08203125 1.875 C1.05142578 1.441875 1.05142578 1.441875 0 1 C0 0.67 0 0.34 0 0 Z " fill="#C0F4CC" transform="translate(144,56)"/>
<path d="M0 0 C2.1875 -0.3125 2.1875 -0.3125 5 0 C7.8125 2.5 7.8125 2.5 10 5 C9.67 5.66 9.34 6.32 9 7 C7.68176698 6.40844669 6.37052949 5.80128537 5.0625 5.1875 C4.33160156 4.85105469 3.60070312 4.51460937 2.84765625 4.16796875 C1 3 1 3 0 0 Z " fill="#6BEA80" transform="translate(176,36)"/>
<path d="M0 0 C0 0.66 0 1.32 0 2 C0.66 2 1.32 2 2 2 C1.67 2.99 1.34 3.98 1 5 C0.05125 4.814375 -0.8975 4.62875 -1.875 4.4375 C-4.89868793 3.71313368 -4.89868793 3.71313368 -7 5 C-5.22678182 1.07358831 -4.52021524 0 0 0 Z " fill="#5ADE6E" transform="translate(253,155)"/>
<path d="M0 0 C0.33 1.32 0.66 2.64 1 4 C-0.98 4.99 -0.98 4.99 -3 6 C-2.625 3.5625 -2.625 3.5625 -2 1 C-1.34 0.67 -0.68 0.34 0 0 Z M-4 6 C-3.67 6 -3.34 6 -3 6 C-2.3125 8.75 -2.3125 8.75 -2 12 C-3.4375 14.375 -3.4375 14.375 -5 16 C-5.125 9.375 -5.125 9.375 -4 6 Z " fill="#11D23F" transform="translate(88,108)"/>
<path d="M0 0 C5.14018692 7.71028037 5.14018692 7.71028037 4.6875 11.875 C4.460625 12.57625 4.23375 13.2775 4 14 C2 13 2 13 0.875 9.8125 C0.08319763 6.36250398 -0.1714979 3.515707 0 0 Z " fill="#C8F6C5" transform="translate(105,96)"/>
<path d="M0 0 C0.33 1.32 0.66 2.64 1 4 C0.34 4 -0.32 4 -1 4 C-1 4.99 -1 5.98 -1 7 C-0.01 6.67 0.98 6.34 2 6 C2 6.66 2 7.32 2 8 C1.01 8.33 0.02 8.66 -1 9 C-1.33 8.01 -1.66 7.02 -2 6 C-2.99 6.99 -3.98 7.98 -5 9 C-5.66 8.67 -6.32 8.34 -7 8 C-4.69 5.36 -2.38 2.72 0 0 Z " fill="#CCF6D0" transform="translate(111,57)"/>
<path d="M0 0 C0.33 0 0.66 0 1 0 C1 1.65 1 3.3 1 5 C2.98 5.495 2.98 5.495 5 6 C4.67 9.3 4.34 12.6 4 16 C3.67 16 3.34 16 3 16 C3 13.36 3 10.72 3 8 C2.01 8 1.02 8 0 8 C0 5.36 0 2.72 0 0 Z " fill="#60E875" transform="translate(192,56)"/>
<path d="M0 0 C2.31 0 4.62 0 7 0 C6.01 0.495 6.01 0.495 5 1 C5 2.65 5 4.3 5 6 C3.68 6 2.36 6 1 6 C0.67 4.02 0.34 2.04 0 0 Z " fill="#36CB49" transform="translate(129,63)"/>
<path d="M0 0 C1.65 0 3.3 0 5 0 C5 1.32 5 2.64 5 4 C0.92857143 7 0.92857143 7 -2 7 C-2 6.01 -2 5.02 -2 4 C-1.34 4 -0.68 4 0 4 C0 2.68 0 1.36 0 0 Z " fill="#E9F3ED" transform="translate(112,57)"/>
<path d="M0 0 C2.66126893 0.38970412 5.32803233 0.68827044 8 1 C8 1.33 8 1.66 8 2 C2.06 2.33 -3.88 2.66 -10 3 C-9 1 -9 1 -6.6875 -0.1875 C-3.68340555 -1.0957146 -2.91289984 -0.91548281 0 0 Z " fill="#D4F7D6" transform="translate(128,51)"/>
<path d="M0 0 C0.33 0.66 0.66 1.32 1 2 C4.465 1.505 4.465 1.505 8 1 C7.67 2.32 7.34 3.64 7 5 C5.02 5 3.04 5 1 5 C0.67 3.35 0.34 1.7 0 0 Z " fill="#24C83D" transform="translate(247,150)"/>
<path d="M0 0 C1.32 0 2.64 0 4 0 C4.625 2.375 4.625 2.375 5 5 C4.34 5.66 3.68 6.32 3 7 C2.01 7 1.02 7 0 7 C0 4.69 0 2.38 0 0 Z " fill="#7CFA84" transform="translate(197,69)"/>
<path d="M0 0 C0.66 0.33 1.32 0.66 2 1 C2 1.66 2 2.32 2 3 C1.34 3 0.68 3 0 3 C0.33 5.64 0.66 8.28 1 11 C0.34 11 -0.32 11 -1 11 C-1 11.66 -1 12.32 -1 13 C-1.66 13 -2.32 13 -3 13 C-2.45144652 8.428721 -1.58255197 4.32564205 0 0 Z " fill="#C6F6C7" transform="translate(101,109)"/>
<path d="M0 0 C1.125 3.75 1.125 3.75 0 6 C-1.65 5.67 -3.3 5.34 -5 5 C-4.625 3.0625 -4.625 3.0625 -4 1 C-2 0 -2 0 0 0 Z " fill="#1DCA34" transform="translate(143,92)"/>
<path d="M0 0 C0.94875 0.350625 1.8975 0.70125 2.875 1.0625 C2.875 1.7225 2.875 2.3825 2.875 3.0625 C-0.41196233 3.86203138 -1.83523192 4.15908936 -5.125 3.0625 C-5.125 2.0725 -5.125 1.0825 -5.125 0.0625 C-3.125 -0.9375 -3.125 -0.9375 0 0 Z " fill="#3CD44B" transform="translate(151.125,58.9375)"/>
<path d="M0 0 C1.9375 0.8125 1.9375 0.8125 4 2 C4.96070434 4.88211302 5.10581883 6.69850044 5.0625 9.6875 C5.05347656 10.49574219 5.04445312 11.30398437 5.03515625 12.13671875 C5.02355469 12.75160156 5.01195312 13.36648437 5 14 C3.25434889 10.78360346 2.795563 8.67986596 3 5 C2.34 5 1.68 5 1 5 C0.67 3.35 0.34 1.7 0 0 Z " fill="#43E265" transform="translate(187,46)"/>
<path d="M0 0 C3 1 3 1 4 2 C4.33 2.99 4.66 3.98 5 5 C3.375 5.6875 3.375 5.6875 1 6 C-2.25 4.5625 -2.25 4.5625 -5 3 C-4.360625 2.690625 -3.72125 2.38125 -3.0625 2.0625 C-1.06389179 1.1654837 -1.06389179 1.1654837 0 0 Z " fill="#04CD18" transform="translate(151,107)"/>
<path d="M0 0 C0.6875 1.8125 0.6875 1.8125 1 4 C-0.4375 5.75 -0.4375 5.75 -2 7 C-6.875 5.25 -6.875 5.25 -8 3 C-5.69 3 -3.38 3 -1 3 C-0.67 2.01 -0.34 1.02 0 0 Z " fill="#74F187" transform="translate(183,141)"/>
<path d="M0 0 C2.9719385 1.12451727 5.33440687 2.22293791 8 4 C8 4.66 8 5.32 8 6 C7.01 6.33 6.02 6.66 5 7 C5 6.34 5 5.68 5 5 C4.01 5 3.02 5 2 5 C2 4.01 2 3.02 2 2 C1.01 1.67 0.02 1.34 -1 1 C-0.67 0.67 -0.34 0.34 0 0 Z " fill="#64EC76" transform="translate(89,140)"/>
<path d="M0 0 C0.33 0.99 0.66 1.98 1 3 C-5.75 4.125 -5.75 4.125 -8 3 C-8 2.34 -8 1.68 -8 1 C-5.29120665 -0.35439668 -2.99066732 -0.06501451 0 0 Z " fill="#11BD15" transform="translate(150,107)"/>
<path d="M0 0 C0.66 0.99 1.32 1.98 2 3 C-0.43773135 5.43773135 -1.61088906 5.61487376 -5 6 C-8.3125 5.5625 -8.3125 5.5625 -11 5 C-11 4.67 -11 4.34 -11 4 C-10.37351563 3.87882812 -9.74703125 3.75765625 -9.1015625 3.6328125 C-8.28429687 3.46523437 -7.46703125 3.29765625 -6.625 3.125 C-5.81289062 2.96257812 -5.00078125 2.80015625 -4.1640625 2.6328125 C-1.81326077 2.13341068 -1.81326077 2.13341068 0 0 Z " fill="#26C535" transform="translate(155,102)"/>
<path d="M0 0 C2.02054804 1.64169528 4.02043058 3.30911778 6 5 C6 5.33 6 5.66 6 6 C4.02 6.33 2.04 6.66 0 7 C-0.38133299 5.0085944 -0.71325582 3.00720923 -1 1 C-0.67 0.67 -0.34 0.34 0 0 Z " fill="#EDF4ED" transform="translate(130,92)"/>
<path d="M0 0 C0.66 0.33 1.32 0.66 2 1 C1.34 2.98 0.68 4.96 0 7 C-1.98 7.33 -3.96 7.66 -6 8 C-4.68 7.34 -3.36 6.68 -2 6 C-2.33 4.35 -2.66 2.7 -3 1 C-2.01 0.67 -1.02 0.34 0 0 Z " fill="#26D548" transform="translate(128,62)"/>
<path d="M0 0 C5.53846154 -0.36923077 5.53846154 -0.36923077 7.875 1.5 C8.24625 1.995 8.6175 2.49 9 3 C5.06329512 4.31223496 2.87511856 3.24296256 -1 2 C-0.67 1.34 -0.34 0.68 0 0 Z " fill="#56DA6C" transform="translate(248,143)"/>
<path d="M0 0 C0.99 0.66 1.98 1.32 3 2 C3 3.32 3 4.64 3 6 C2.01 6 1.02 6 0 6 C-0.33 6.99 -0.66 7.98 -1 9 C-1.66 7.35 -2.32 5.7 -3 4 C-2.34 3.67 -1.68 3.34 -1 3 C-0.67 2.01 -0.34 1.02 0 0 Z " fill="#E2F6E5" transform="translate(161,111)"/>
<path d="M0 0 C1.8125 0.1875 1.8125 0.1875 4 1 C5.75 3.5625 5.75 3.5625 7 6 C6.01 6.495 6.01 6.495 5 7 C2.375 6.0625 2.375 6.0625 0 5 C0.33 4.01 0.66 3.02 1 2 C0.67 1.34 0.34 0.68 0 0 Z " fill="#E5F5EB" transform="translate(156,56)"/>
<path d="M0 0 C0.33 0.99 0.66 1.98 1 3 C1.66 3 2.32 3 3 3 C4.6875 5.375 4.6875 5.375 6 8 C5.67 8.66 5.34 9.32 5 10 C2 9 2 9 0.8125 6.6875 C0 4 0 4 0 0 Z " fill="#62F17D" transform="translate(80,126)"/>
<path d="M0 0 C0 0.66 0 1.32 0 2 C-2.52475462 3.26237731 -4.31200466 3.09856404 -7.125 3.0625 C-8.03507812 3.05347656 -8.94515625 3.04445312 -9.8828125 3.03515625 C-10.58148438 3.02355469 -11.28015625 3.01195312 -12 3 C-7.74560485 0.81962249 -4.84315381 0 0 0 Z " fill="#23C43E" transform="translate(108,126)"/>
<path d="M0 0 C0.66 0.66 1.32 1.32 2 2 C-4.75 6 -4.75 6 -7 6 C-7.33 5.01 -7.66 4.02 -8 3 C-5.36 2.67 -2.72 2.34 0 2 C0 1.34 0 0.68 0 0 Z " fill="#C6F1C4" transform="translate(159,119)"/>
<path d="M0 0 C-0.8125 1.9375 -0.8125 1.9375 -2 4 C-2.99 4.33 -3.98 4.66 -5 5 C-5.66 4.67 -6.32 4.34 -7 4 C-7 3.34 -7 2.68 -7 2 C-4 0 -4 0 0 0 Z " fill="#20D949" transform="translate(166,50)"/>
<path d="M0 0 C0.66 0 1.32 0 2 0 C1.8125 1.875 1.8125 1.875 1 4 C-1.5625 5.25 -1.5625 5.25 -4 6 C-4 5.34 -4 4.68 -4 4 C-4.66 3.67 -5.32 3.34 -6 3 C-5.195625 2.690625 -4.39125 2.38125 -3.5625 2.0625 C-1.10919595 1.23664655 -1.10919595 1.23664655 0 0 Z " fill="#33D54B" transform="translate(30,160)"/>
<path d="M0 0 C2.64 0 5.28 0 8 0 C7.67 0.66 7.34 1.32 7 2 C4.35139573 2.59355614 1.70802678 2.74209269 -1 3 C-0.67 2.01 -0.34 1.02 0 0 Z " fill="#E5FAF0" transform="translate(112,117)"/>
<path d="M0 0 C1.98 0 3.96 0 6 0 C3.47211993 2.79872437 1.79588866 4.45773019 -2 5 C-2 4.34 -2 3.68 -2 3 C-1.34 3 -0.68 3 0 3 C0 2.01 0 1.02 0 0 Z " fill="#2DBC2F" transform="translate(153,112)"/>
<path d="M0 0 C2.60334924 2.71182212 2.99456691 3.89133813 3.1875 7.75 C3.0946875 9.35875 3.0946875 9.35875 3 11 C2.67 10.34 2.34 9.68 2 9 C1.34 8.67 0.68 8.34 0 8 C0 5.36 0 2.72 0 0 Z " fill="#02C326" transform="translate(97,103)"/>
<path d="M0 0 C2.18975773 3.28463659 2.99806563 6.20696275 4 10 C3.34 10.66 2.68 11.32 2 12 C0.00214565 7.8794254 -0.17835515 4.54805635 0 0 Z " fill="#39C351" transform="translate(98,99)"/>
<path d="M0 0 C0.99 0.33 1.98 0.66 3 1 C2.34 2.98 1.68 4.96 1 7 C0.01 6.01 -0.98 5.02 -2 4 C-1.34 2.68 -0.68 1.36 0 0 Z " fill="#21C032" transform="translate(130,83)"/>
<path d="M0 0 C1.98 0.495 1.98 0.495 4 1 C3.67 2.32 3.34 3.64 3 5 C1.68 5 0.36 5 -1 5 C-0.67 3.35 -0.34 1.7 0 0 Z " fill="#E9F2E7" transform="translate(164,62)"/>
<path d="M0 0 C1.65 0 3.3 0 5 0 C5 0.99 5 1.98 5 3 C3.02 3.33 1.04 3.66 -1 4 C-0.67 2.68 -0.34 1.36 0 0 Z " fill="#EAF1EA" transform="translate(150,53)"/>
<path d="M0 0 C3.3 0 6.6 0 10 0 C10 0.66 10 1.32 10 2 C7.69 2.33 5.38 2.66 3 3 C3 2.34 3 1.68 3 1 C2.01 0.67 1.02 0.34 0 0 Z " fill="#7AF38C" transform="translate(21,172)"/>
<path d="M0 0 C0.33 0 0.66 0 1 0 C1.125 7.625 1.125 7.625 0 11 C-0.66 11 -1.32 11 -2 11 C-2 9.02 -2 7.04 -2 5 C-1.67 5 -1.34 5 -1 5 C-0.67 3.35 -0.34 1.7 0 0 Z " fill="#55E065" transform="translate(186,96)"/>
<path d="M0 0 C1.32 0.33 2.64 0.66 4 1 C4 1.99 4 2.98 4 4 C2.02 4 0.04 4 -2 4 C-1.34 2.68 -0.68 1.36 0 0 Z " fill="#EEEBF7" transform="translate(149,99)"/>
<path d="M0 0 C0.33 0.66 0.66 1.32 1 2 C3.01669827 3.13350534 3.01669827 3.13350534 5 4 C2.525 5.485 2.525 5.485 0 7 C-0.93423645 3.98968256 -1.04449911 3.13349732 0 0 Z " fill="#77F787" transform="translate(245,152)"/>
<path d="M0 0 C0 0.66 0 1.32 0 2 C-0.66 2 -1.32 2 -2 2 C-2 2.66 -2 3.32 -2 4 C-3.65 4.33 -5.3 4.66 -7 5 C-6 2 -6 2 -4.0625 0.8125 C-2 0 -2 0 0 0 Z " fill="#53D568" transform="translate(97,146)"/>
<path d="M0 0 C2.0625 0.4375 2.0625 0.4375 4 1 C4 2.32 4 3.64 4 5 C2.68 5 1.36 5 0 5 C-0.5625 3.0625 -0.5625 3.0625 -1 1 C-0.67 0.67 -0.34 0.34 0 0 Z " fill="#07D136" transform="translate(158,122)"/>
<path d="M0 0 C1.32 0 2.64 0 4 0 C4 1.32 4 2.64 4 4 C2.68 4.33 1.36 4.66 0 5 C0 3.35 0 1.7 0 0 Z " fill="#D7FBEA" transform="translate(106,118)"/>
<path d="M0 0 C0.33 0 0.66 0 1 0 C1.66 3.96 2.32 7.92 3 12 C2.01 12 1.02 12 0 12 C0 8.04 0 4.08 0 0 Z " fill="#4FEB66" transform="translate(194,64)"/>
<path d="M0 0 C0.6875 1.6875 0.6875 1.6875 1 4 C-0.4375 6.75 -0.4375 6.75 -2 9 C-2.66 8.67 -3.32 8.34 -4 8 C-4 6.68 -4 5.36 -4 4 C-3.01 4 -2.02 4 -1 4 C-0.67 2.68 -0.34 1.36 0 0 Z " fill="#05C834" transform="translate(175,56)"/>
<path d="M0 0 C2.31 0 4.62 0 7 0 C6.67 0.99 6.34 1.98 6 3 C4.35 3 2.7 3 1 3 C0.67 2.01 0.34 1.02 0 0 Z " fill="#DAF9EC" transform="translate(144,52)"/>
<path d="M0 0 C0.33 1.32 0.66 2.64 1 4 C0.34 4 -0.32 4 -1 4 C-1.33 4.66 -1.66 5.32 -2 6 C-3.32 5.34 -4.64 4.68 -6 4 C-2.25 0 -2.25 0 0 0 Z " fill="#1BD437" transform="translate(106,53)"/>
<path d="M0 0 C2.1875 0.3125 2.1875 0.3125 4 1 C2.75 2.5625 2.75 2.5625 1 4 C-1.1875 3.6875 -1.1875 3.6875 -3 3 C-1.75 1.4375 -1.75 1.4375 0 0 Z " fill="#66F377" transform="translate(179,141)"/>
<path d="M0 0 C0.33 0.66 0.66 1.32 1 2 C3.02463255 2.65213292 3.02463255 2.65213292 5 3 C5 3.66 5 4.32 5 5 C2.69 4.34 0.38 3.68 -2 3 C-2 2.34 -2 1.68 -2 1 C-1.34 0.67 -0.68 0.34 0 0 Z " fill="#0DD735" transform="translate(95,133)"/>
<path d="M0 0 C0.66 0.66 1.32 1.32 2 2 C1.67 2.66 1.34 3.32 1 4 C-3.455 3.01 -3.455 3.01 -8 2 C-8 1.67 -8 1.34 -8 1 C-1.9453125 0.0234375 -1.9453125 0.0234375 0 0 Z " fill="#BAEFC0" transform="translate(123,122)"/>
<path d="M0 0 C5.53846154 -0.36923077 5.53846154 -0.36923077 7.875 1.5 C8.24625 1.995 8.6175 2.49 9 3 C2.25 2.25 2.25 2.25 0 0 Z " fill="#03C306" transform="translate(144,111)"/>
<path d="M0 0 C0.66 0.66 1.32 1.32 2 2 C-1.75 8.875 -1.75 8.875 -4 10 C-3.42655063 7.13275314 -3.1385485 6.1385485 -1 4 C-0.3574765 1.93125966 -0.3574765 1.93125966 0 0 Z " fill="#35B63C" transform="translate(165,100)"/>
<path d="M0 0 C0.66 0.33 1.32 0.66 2 1 C2.625 4.0625 2.625 4.0625 3 7 C2.01 7.33 1.02 7.66 0 8 C-0.98120464 4.94736336 -0.98120464 3.05263664 0 0 Z " fill="#09C11C" transform="translate(132,84)"/>
<path d="M0 0 C0.99 0 1.98 0 3 0 C3 2.31 3 4.62 3 7 C2.34 7 1.68 7 1 7 C0.67 4.69 0.34 2.38 0 0 Z " fill="#00CC11" transform="translate(113,78)"/>
<path d="M0 0 C0.66 0.33 1.32 0.66 2 1 C1.67 2.65 1.34 4.3 1 6 C-1.475 5.01 -1.475 5.01 -4 4 C-2.68 2.68 -1.36 1.36 0 0 Z " fill="#3ACF54" transform="translate(120,60)"/>
</svg>
